<svg width="48" height="48" viewBox="0 0 48 48" fill="none" xmlns="http://www.w3.org/2000/svg">
<g id="material-symbols:call-sharp" clip-path="url(#clip0_139_91)">
<path id="Vector" d="M0.0284458 22.5288C2.97303 19.5809 6.5247 17.2986 10.6834 15.6821C14.8422 14.0657 19.2791 13.2556 23.994 13.252C28.7081 13.2492 33.1397 14.0481 37.289 15.6485C41.4383 17.2489 44.9987 19.5331 47.9703 22.5013L49.4561 23.9854L41.117 32.334L32.6991 26.5406L32.6591 18.4442C31.2211 18.0443 29.7713 17.7505 28.3099 17.5628C26.8484 17.3751 25.3988 17.2934 23.961 17.3178C22.5939 17.3186 21.1911 17.4137 19.7525 17.6031C18.3139 17.7925 16.8532 18.088 15.3703 18.4895L15.3751 26.6919L6.85765 32.3183L-1.45562 24.0146L0.0284458 22.5288Z" fill="white"/>
</g>
<defs>
<clipPath id="clip0_139_91">
<rect width="48" height="48" fill="white"/>
</clipPath>
</defs>
</svg>
