<svg width="218" height="48" viewBox="0 0 218 48" fill="none" xmlns="http://www.w3.org/2000/svg">
<path d="M43.6999 20C41.8468 10.871 33.7758 4 24.0999 4C14.4241 4 6.35308 10.871 4.5 20L10.5 18" stroke="url(#paint0_linear_23_2571)" stroke-width="3" stroke-linecap="round" stroke-linejoin="round"/>
<path d="M4.5 28C6.35308 37.129 14.4241 44 24.0999 44C33.7758 44 41.8468 37.129 43.6999 28L38.5 30" stroke="url(#paint1_linear_23_2571)" stroke-width="3" stroke-linecap="round" stroke-linejoin="round"/>
<g clip-path="url(#clip0_23_2571)">
<path d="M25.5 21H23.99C23.36 21 22.74 21.3 22.4 21.7L21.5 19H18.63L16.24 26H17.93L18.67 24H21.5V28H16.5C15.4 28 14.5 27.1 14.5 26V19C14.5 17.9 15.4 17 16.5 17H23.5C24.6 17 25.5 17.9 25.5 19V21ZM21.01 23H18.99L19.99 20.07L21.01 23ZM24.5 22H31.5C32.6 22 33.5 22.9 33.5 24V31C33.5 32.1 32.6 33 31.5 33H24.5C23.4 33 22.5 32.1 22.5 31V24C22.5 22.9 23.4 22 24.5 22ZM31.75 27V25.92H28.58V23.75H27.42V25.92H24.25V27H25.53C25.64 27.85 26.09 28.85 26.81 29.62C25.94 29.98 24.92 30.24 24.5 30.24C24.49 30.26 24.72 31.21 24.7 31.7C25.54 31.7 26.91 31.2 27.98 30.55C29.07 31.2 30.46 31.7 31.32 31.7C31.3 31.21 31.52 30.26 31.52 30.24C31.09 30.24 30.03 29.97 29.14 29.61C29.84 28.84 30.28 27.84 30.39 27H31.75ZM27.94 28.93C27.44 28.47 27.09 27.8 26.93 27H29.02C28.85 27.8 28.51 28.47 28.02 28.93L27.98 28.96C27.98 28.96 27.95 28.94 27.94 28.93Z" fill="url(#paint2_linear_23_2571)"/>
</g>
<path d="M70.486 32.494V35H58.978V14.896H61.96V32.494H70.486ZM75.6842 20.776V35H72.9542V20.776H75.6842ZM76.2022 16.38C76.2022 16.632 76.1508 16.8747 76.0482 17.108C75.9455 17.332 75.8055 17.5327 75.6282 17.71C75.4602 17.878 75.2595 18.0133 75.0262 18.116C74.7928 18.2093 74.5502 18.256 74.2982 18.256C74.0462 18.256 73.8082 18.2093 73.5842 18.116C73.3602 18.0133 73.1595 17.878 72.9822 17.71C72.8142 17.5327 72.6788 17.332 72.5762 17.108C72.4828 16.8747 72.4362 16.632 72.4362 16.38C72.4362 16.1187 72.4828 15.876 72.5762 15.652C72.6788 15.4187 72.8142 15.218 72.9822 15.05C73.1595 14.8727 73.3602 14.7373 73.5842 14.644C73.8082 14.5413 74.0462 14.49 74.2982 14.49C74.5502 14.49 74.7928 14.5413 75.0262 14.644C75.2595 14.7373 75.4602 14.8727 75.6282 15.05C75.8055 15.218 75.9455 15.4187 76.0482 15.652C76.1508 15.876 76.2022 16.1187 76.2022 16.38ZM82.1988 22.75C82.5068 22.4233 82.8288 22.1247 83.1648 21.854C83.5008 21.5833 83.8554 21.3547 84.2288 21.168C84.6114 20.972 85.0174 20.8227 85.4468 20.72C85.8854 20.608 86.3521 20.552 86.8468 20.552C87.6308 20.552 88.3168 20.6827 88.9048 20.944C89.5021 21.2053 90.0014 21.574 90.4028 22.05C90.8041 22.5167 91.1074 23.0813 91.3128 23.744C91.5181 24.4067 91.6208 25.1393 91.6208 25.942V35H88.8768V25.942C88.8768 24.9247 88.6434 24.136 88.1768 23.576C87.7101 23.0067 86.9961 22.722 86.0348 22.722C85.3348 22.722 84.6768 22.89 84.0608 23.226C83.4541 23.5527 82.8894 24.0007 82.3668 24.57V35H79.6368V20.776H81.2748C81.6574 20.776 81.8954 20.958 81.9888 21.322L82.1988 22.75ZM100.303 27.902C100.788 27.902 101.213 27.8367 101.577 27.706C101.95 27.5753 102.258 27.3933 102.501 27.16C102.753 26.9173 102.939 26.628 103.061 26.292C103.191 25.956 103.257 25.5873 103.257 25.186C103.257 24.3647 103.005 23.7113 102.501 23.226C102.006 22.7313 101.273 22.484 100.303 22.484C99.3414 22.484 98.6087 22.7313 98.1047 23.226C97.6101 23.7113 97.3627 24.3647 97.3627 25.186C97.3627 25.5873 97.4234 25.956 97.5447 26.292C97.6754 26.6187 97.8621 26.9033 98.1047 27.146C98.3567 27.3793 98.6647 27.566 99.0287 27.706C99.4021 27.8367 99.8267 27.902 100.303 27.902ZM104.657 35.742C104.657 35.406 104.563 35.14 104.377 34.944C104.19 34.7387 103.933 34.58 103.607 34.468C103.289 34.3467 102.916 34.2627 102.487 34.216C102.057 34.16 101.605 34.118 101.129 34.09C100.662 34.062 100.181 34.0387 99.6867 34.02C99.1921 33.992 98.7161 33.9453 98.2587 33.88C97.7734 34.1227 97.3721 34.4167 97.0547 34.762C96.7467 35.1073 96.5927 35.5133 96.5927 35.98C96.5927 36.2787 96.6674 36.5587 96.8167 36.82C96.9754 37.0813 97.2134 37.3053 97.5307 37.492C97.8574 37.688 98.2634 37.8373 98.7487 37.94C99.2434 38.052 99.8314 38.108 100.513 38.108C101.185 38.108 101.777 38.0473 102.291 37.926C102.804 37.814 103.233 37.6507 103.579 37.436C103.933 37.2307 104.199 36.9833 104.377 36.694C104.563 36.4047 104.657 36.0873 104.657 35.742ZM107.429 21.308V22.33C107.429 22.666 107.219 22.876 106.799 22.96L105.273 23.184C105.403 23.4733 105.506 23.7813 105.581 24.108C105.655 24.4253 105.693 24.7613 105.693 25.116C105.693 25.816 105.557 26.4507 105.287 27.02C105.016 27.58 104.643 28.0607 104.167 28.462C103.691 28.8633 103.121 29.1713 102.459 29.386C101.805 29.6007 101.087 29.708 100.303 29.708C99.6587 29.708 99.0567 29.638 98.4967 29.498C98.2167 29.666 98.0021 29.8527 97.8527 30.058C97.7127 30.254 97.6427 30.45 97.6427 30.646C97.6427 30.9727 97.7781 31.2153 98.0487 31.374C98.3287 31.5327 98.6881 31.6493 99.1267 31.724C99.5747 31.7893 100.083 31.8313 100.653 31.85C101.231 31.8687 101.815 31.9013 102.403 31.948C103 31.9853 103.583 32.06 104.153 32.172C104.731 32.2747 105.24 32.4473 105.679 32.69C106.127 32.9233 106.486 33.25 106.757 33.67C107.037 34.0807 107.177 34.6173 107.177 35.28C107.177 35.896 107.023 36.4933 106.715 37.072C106.416 37.6507 105.977 38.164 105.399 38.612C104.82 39.06 104.115 39.4193 103.285 39.69C102.454 39.9607 101.511 40.096 100.457 40.096C99.4021 40.096 98.4827 39.9933 97.6987 39.788C96.9241 39.5827 96.2754 39.3073 95.7527 38.962C95.2394 38.6167 94.8521 38.2153 94.5907 37.758C94.3387 37.3007 94.2127 36.8247 94.2127 36.33C94.2127 35.6393 94.4274 35.056 94.8567 34.58C95.2861 34.0947 95.8787 33.7167 96.6347 33.446C96.2241 33.2593 95.8974 33.0073 95.6547 32.69C95.4121 32.3633 95.2907 31.934 95.2907 31.402C95.2907 31.1967 95.3281 30.9867 95.4027 30.772C95.4774 30.548 95.5894 30.3287 95.7387 30.114C95.8974 29.89 96.0887 29.68 96.3127 29.484C96.5461 29.288 96.8121 29.1107 97.1107 28.952C96.4107 28.56 95.8601 28.042 95.4587 27.398C95.0574 26.7447 94.8567 25.984 94.8567 25.116C94.8567 24.416 94.9921 23.786 95.2627 23.226C95.5334 22.666 95.9067 22.1853 96.3827 21.784C96.8681 21.3827 97.4421 21.0747 98.1047 20.86C98.7767 20.6453 99.5094 20.538 100.303 20.538C101.535 20.538 102.594 20.7947 103.481 21.308H107.429ZM121.764 20.776V35H120.126C119.752 35 119.51 34.818 119.398 34.454L119.202 33.026C118.894 33.3527 118.572 33.6513 118.236 33.922C117.9 34.1927 117.54 34.426 117.158 34.622C116.775 34.8087 116.369 34.9533 115.94 35.056C115.51 35.168 115.048 35.224 114.554 35.224C113.77 35.224 113.079 35.0933 112.482 34.832C111.894 34.5707 111.399 34.2067 110.998 33.74C110.596 33.264 110.293 32.6947 110.088 32.032C109.882 31.3693 109.78 30.6367 109.78 29.834V20.776H112.524V29.834C112.524 30.8513 112.757 31.6447 113.224 32.214C113.69 32.774 114.404 33.054 115.366 33.054C116.066 33.054 116.719 32.8907 117.326 32.564C117.932 32.228 118.502 31.7707 119.034 31.192V20.776H121.764ZM133.218 28.686C132.108 28.7233 131.165 28.812 130.39 28.952C129.616 29.0827 128.986 29.26 128.5 29.484C128.015 29.708 127.665 29.974 127.45 30.282C127.236 30.5807 127.128 30.9167 127.128 31.29C127.128 31.6447 127.184 31.9527 127.296 32.214C127.418 32.466 127.576 32.676 127.772 32.844C127.978 33.0027 128.216 33.1193 128.486 33.194C128.757 33.2687 129.051 33.306 129.368 33.306C129.788 33.306 130.171 33.264 130.516 33.18C130.871 33.096 131.202 32.9793 131.51 32.83C131.818 32.6713 132.112 32.48 132.392 32.256C132.672 32.032 132.948 31.7753 133.218 31.486V28.686ZM125.21 22.764C126.004 22.008 126.862 21.4433 127.786 21.07C128.72 20.6967 129.742 20.51 130.852 20.51C131.664 20.51 132.383 20.6453 133.008 20.916C133.634 21.1773 134.161 21.546 134.59 22.022C135.02 22.498 135.342 23.0673 135.556 23.73C135.78 24.3927 135.892 25.1253 135.892 25.928V35H134.674C134.404 35 134.198 34.958 134.058 34.874C133.918 34.7807 133.806 34.6127 133.722 34.37L133.428 33.124C133.064 33.46 132.705 33.7587 132.35 34.02C131.996 34.272 131.622 34.4913 131.23 34.678C130.848 34.8553 130.437 34.9907 129.998 35.084C129.56 35.1773 129.074 35.224 128.542 35.224C127.982 35.224 127.455 35.1493 126.96 35C126.475 34.8413 126.05 34.6033 125.686 34.286C125.322 33.9687 125.033 33.572 124.818 33.096C124.613 32.62 124.51 32.0647 124.51 31.43C124.51 30.87 124.66 30.3333 124.958 29.82C125.266 29.2973 125.761 28.8307 126.442 28.42C127.133 28.0093 128.029 27.6733 129.13 27.412C130.241 27.1507 131.604 27.0013 133.218 26.964V25.928C133.218 24.8547 132.99 24.052 132.532 23.52C132.075 22.988 131.403 22.722 130.516 22.722C129.919 22.722 129.415 22.7967 129.004 22.946C128.603 23.0953 128.253 23.2633 127.954 23.45C127.665 23.6273 127.408 23.7907 127.184 23.94C126.97 24.0893 126.746 24.164 126.512 24.164C126.326 24.164 126.162 24.1127 126.022 24.01C125.892 23.9073 125.784 23.786 125.7 23.646L125.21 22.764ZM146.988 32.634C147.744 32.634 148.388 32.5453 148.92 32.368C149.461 32.1907 149.9 31.948 150.236 31.64C150.581 31.332 150.833 30.968 150.992 30.548C151.151 30.1187 151.23 29.652 151.23 29.148C151.23 28.1493 150.885 27.3653 150.194 26.796C149.503 26.2173 148.435 25.928 146.988 25.928H142.788V32.634H146.988ZM142.788 17.234V23.814H146.218C147.683 23.814 148.771 23.52 149.48 22.932C150.199 22.3347 150.558 21.532 150.558 20.524C150.558 19.376 150.217 18.5407 149.536 18.018C148.855 17.4953 147.795 17.234 146.358 17.234H142.788ZM146.358 14.896C147.618 14.896 148.696 15.0173 149.592 15.26C150.497 15.5027 151.239 15.8527 151.818 16.31C152.397 16.7673 152.821 17.3227 153.092 17.976C153.372 18.62 153.512 19.3527 153.512 20.174C153.512 20.6593 153.437 21.126 153.288 21.574C153.139 22.022 152.91 22.442 152.602 22.834C152.294 23.2167 151.907 23.562 151.44 23.87C150.973 24.178 150.423 24.4347 149.788 24.64C152.709 25.2187 154.17 26.7447 154.17 29.218C154.17 30.0767 154.011 30.8607 153.694 31.57C153.377 32.27 152.915 32.8767 152.308 33.39C151.701 33.9033 150.955 34.3 150.068 34.58C149.181 34.86 148.173 35 147.044 35H139.806V14.896H146.358ZM159.705 23.506C160.162 22.5727 160.713 21.84 161.357 21.308C162.001 20.776 162.776 20.51 163.681 20.51C163.989 20.51 164.278 20.5473 164.549 20.622C164.829 20.6873 165.072 20.79 165.277 20.93L165.095 22.988C165.03 23.24 164.876 23.366 164.633 23.366C164.502 23.366 164.306 23.3427 164.045 23.296C163.784 23.24 163.504 23.212 163.205 23.212C162.766 23.212 162.379 23.2773 162.043 23.408C161.707 23.5293 161.404 23.716 161.133 23.968C160.872 24.2107 160.638 24.514 160.433 24.878C160.228 25.2327 160.036 25.6387 159.859 26.096V35H157.129V20.776H158.697C158.996 20.776 159.196 20.832 159.299 20.944C159.411 21.0467 159.49 21.2333 159.537 21.504L159.705 23.506ZM170.239 20.776V35H167.509V20.776H170.239ZM170.757 16.38C170.757 16.632 170.706 16.8747 170.603 17.108C170.5 17.332 170.36 17.5327 170.183 17.71C170.015 17.878 169.814 18.0133 169.581 18.116C169.348 18.2093 169.105 18.256 168.853 18.256C168.601 18.256 168.363 18.2093 168.139 18.116C167.915 18.0133 167.714 17.878 167.537 17.71C167.369 17.5327 167.234 17.332 167.131 17.108C167.038 16.8747 166.991 16.632 166.991 16.38C166.991 16.1187 167.038 15.876 167.131 15.652C167.234 15.4187 167.369 15.218 167.537 15.05C167.714 14.8727 167.915 14.7373 168.139 14.644C168.363 14.5413 168.601 14.49 168.853 14.49C169.105 14.49 169.348 14.5413 169.581 14.644C169.814 14.7373 170.015 14.8727 170.183 15.05C170.36 15.218 170.5 15.4187 170.603 15.652C170.706 15.876 170.757 16.1187 170.757 16.38ZM183.361 24.22C182.913 23.632 182.428 23.2213 181.905 22.988C181.392 22.7547 180.813 22.638 180.169 22.638C178.919 22.638 177.948 23.0907 177.257 23.996C176.576 24.892 176.235 26.2033 176.235 27.93C176.235 28.8353 176.31 29.61 176.459 30.254C176.618 30.8887 176.842 31.4113 177.131 31.822C177.43 32.2233 177.794 32.522 178.223 32.718C178.653 32.9047 179.138 32.998 179.679 32.998C180.473 32.998 181.159 32.8207 181.737 32.466C182.316 32.1113 182.857 31.612 183.361 30.968V24.22ZM186.105 14.336V35H184.453C184.071 35 183.833 34.818 183.739 34.454L183.501 32.816C182.895 33.5347 182.204 34.1133 181.429 34.552C180.664 34.9813 179.777 35.196 178.769 35.196C177.957 35.196 177.22 35.0373 176.557 34.72C175.904 34.4027 175.344 33.9407 174.877 33.334C174.411 32.718 174.051 31.9573 173.799 31.052C173.547 30.1467 173.421 29.106 173.421 27.93C173.421 26.8753 173.561 25.8953 173.841 24.99C174.121 24.0847 174.527 23.3007 175.059 22.638C175.591 21.9753 176.235 21.4573 176.991 21.084C177.747 20.7013 178.601 20.51 179.553 20.51C180.412 20.51 181.14 20.65 181.737 20.93C182.344 21.21 182.885 21.6067 183.361 22.12V14.336H186.105ZM194.912 27.902C195.397 27.902 195.822 27.8367 196.186 27.706C196.559 27.5753 196.867 27.3933 197.11 27.16C197.362 26.9173 197.549 26.628 197.67 26.292C197.801 25.956 197.866 25.5873 197.866 25.186C197.866 24.3647 197.614 23.7113 197.11 23.226C196.615 22.7313 195.883 22.484 194.912 22.484C193.951 22.484 193.218 22.7313 192.714 23.226C192.219 23.7113 191.972 24.3647 191.972 25.186C191.972 25.5873 192.033 25.956 192.154 26.292C192.285 26.6187 192.471 26.9033 192.714 27.146C192.966 27.3793 193.274 27.566 193.638 27.706C194.011 27.8367 194.436 27.902 194.912 27.902ZM199.266 35.742C199.266 35.406 199.173 35.14 198.986 34.944C198.799 34.7387 198.543 34.58 198.216 34.468C197.899 34.3467 197.525 34.2627 197.096 34.216C196.667 34.16 196.214 34.118 195.738 34.09C195.271 34.062 194.791 34.0387 194.296 34.02C193.801 33.992 193.325 33.9453 192.868 33.88C192.383 34.1227 191.981 34.4167 191.664 34.762C191.356 35.1073 191.202 35.5133 191.202 35.98C191.202 36.2787 191.277 36.5587 191.426 36.82C191.585 37.0813 191.823 37.3053 192.14 37.492C192.467 37.688 192.873 37.8373 193.358 37.94C193.853 38.052 194.441 38.108 195.122 38.108C195.794 38.108 196.387 38.0473 196.9 37.926C197.413 37.814 197.843 37.6507 198.188 37.436C198.543 37.2307 198.809 36.9833 198.986 36.694C199.173 36.4047 199.266 36.0873 199.266 35.742ZM202.038 21.308V22.33C202.038 22.666 201.828 22.876 201.408 22.96L199.882 23.184C200.013 23.4733 200.115 23.7813 200.19 24.108C200.265 24.4253 200.302 24.7613 200.302 25.116C200.302 25.816 200.167 26.4507 199.896 27.02C199.625 27.58 199.252 28.0607 198.776 28.462C198.3 28.8633 197.731 29.1713 197.068 29.386C196.415 29.6007 195.696 29.708 194.912 29.708C194.268 29.708 193.666 29.638 193.106 29.498C192.826 29.666 192.611 29.8527 192.462 30.058C192.322 30.254 192.252 30.45 192.252 30.646C192.252 30.9727 192.387 31.2153 192.658 31.374C192.938 31.5327 193.297 31.6493 193.736 31.724C194.184 31.7893 194.693 31.8313 195.262 31.85C195.841 31.8687 196.424 31.9013 197.012 31.948C197.609 31.9853 198.193 32.06 198.762 32.172C199.341 32.2747 199.849 32.4473 200.288 32.69C200.736 32.9233 201.095 33.25 201.366 33.67C201.646 34.0807 201.786 34.6173 201.786 35.28C201.786 35.896 201.632 36.4933 201.324 37.072C201.025 37.6507 200.587 38.164 200.008 38.612C199.429 39.06 198.725 39.4193 197.894 39.69C197.063 39.9607 196.121 40.096 195.066 40.096C194.011 40.096 193.092 39.9933 192.308 39.788C191.533 39.5827 190.885 39.3073 190.362 38.962C189.849 38.6167 189.461 38.2153 189.2 37.758C188.948 37.3007 188.822 36.8247 188.822 36.33C188.822 35.6393 189.037 35.056 189.466 34.58C189.895 34.0947 190.488 33.7167 191.244 33.446C190.833 33.2593 190.507 33.0073 190.264 32.69C190.021 32.3633 189.9 31.934 189.9 31.402C189.9 31.1967 189.937 30.9867 190.012 30.772C190.087 30.548 190.199 30.3287 190.348 30.114C190.507 29.89 190.698 29.68 190.922 29.484C191.155 29.288 191.421 29.1107 191.72 28.952C191.02 28.56 190.469 28.042 190.068 27.398C189.667 26.7447 189.466 25.984 189.466 25.116C189.466 24.416 189.601 23.786 189.872 23.226C190.143 22.666 190.516 22.1853 190.992 21.784C191.477 21.3827 192.051 21.0747 192.714 20.86C193.386 20.6453 194.119 20.538 194.912 20.538C196.144 20.538 197.203 20.7947 198.09 21.308H202.038ZM213.746 26.306C213.746 25.7647 213.667 25.2653 213.508 24.808C213.359 24.3507 213.135 23.954 212.836 23.618C212.538 23.282 212.174 23.0207 211.744 22.834C211.315 22.6473 210.82 22.554 210.26 22.554C209.112 22.554 208.207 22.8853 207.544 23.548C206.891 24.2107 206.476 25.13 206.298 26.306H213.746ZM216 32.97C215.664 33.362 215.277 33.7027 214.838 33.992C214.4 34.272 213.933 34.5007 213.438 34.678C212.944 34.8553 212.43 34.986 211.898 35.07C211.376 35.154 210.858 35.196 210.344 35.196C209.364 35.196 208.454 35.0327 207.614 34.706C206.784 34.37 206.06 33.8847 205.444 33.25C204.838 32.606 204.362 31.8127 204.016 30.87C203.68 29.918 203.512 28.826 203.512 27.594C203.512 26.6047 203.666 25.6853 203.974 24.836C204.282 23.9773 204.721 23.2307 205.29 22.596C205.869 21.9613 206.574 21.462 207.404 21.098C208.235 20.734 209.168 20.552 210.204 20.552C211.072 20.552 211.87 20.6967 212.598 20.986C213.336 21.266 213.97 21.6767 214.502 22.218C215.034 22.7593 215.45 23.4267 215.748 24.22C216.056 25.0133 216.21 25.9187 216.21 26.936C216.21 27.356 216.164 27.6407 216.07 27.79C215.977 27.93 215.804 28 215.552 28H206.228C206.256 28.8493 206.378 29.5913 206.592 30.226C206.807 30.8513 207.101 31.374 207.474 31.794C207.857 32.214 208.31 32.5267 208.832 32.732C209.355 32.9373 209.938 33.04 210.582 33.04C211.189 33.04 211.712 32.97 212.15 32.83C212.598 32.69 212.981 32.5407 213.298 32.382C213.625 32.214 213.896 32.06 214.11 31.92C214.334 31.78 214.53 31.71 214.698 31.71C214.922 31.71 215.095 31.794 215.216 31.962L216 32.97Z" fill="#1CCA00"/>
<defs>
<linearGradient id="paint0_linear_23_2571" x1="43.6999" y1="20" x2="32.5039" y2="-7.43018" gradientUnits="userSpaceOnUse">
<stop stop-color="#128000"/>
<stop offset="0.669626" stop-color="#38C621"/>
</linearGradient>
<linearGradient id="paint1_linear_23_2571" x1="43.6999" y1="44" x2="32.5039" y2="16.5698" gradientUnits="userSpaceOnUse">
<stop stop-color="#128000"/>
<stop offset="0.669626" stop-color="#38C621"/>
</linearGradient>
<linearGradient id="paint2_linear_23_2571" x1="33.5" y1="33" x2="17.7334" y2="14.2771" gradientUnits="userSpaceOnUse">
<stop stop-color="#128000"/>
<stop offset="0.669626" stop-color="#38C621"/>
</linearGradient>
<clipPath id="clip0_23_2571">
<rect width="20" height="20" fill="white" transform="translate(14.5 14)"/>
</clipPath>
</defs>
</svg>
