<svg width="368" height="124" viewBox="0 0 368 124" fill="none" xmlns="http://www.w3.org/2000/svg">
<g clip-path="url(#clip0_45_3056)">
<path d="M31.968 55.272V61H5.664V15.048H12.48V55.272H31.968ZM43.8495 28.488V61H37.6095V28.488H43.8495ZM45.0335 18.44C45.0335 19.016 44.9162 19.5707 44.6815 20.104C44.4468 20.616 44.1268 21.0747 43.7215 21.48C43.3375 21.864 42.8788 22.1733 42.3455 22.408C41.8122 22.6213 41.2575 22.728 40.6815 22.728C40.1055 22.728 39.5615 22.6213 39.0495 22.408C38.5375 22.1733 38.0788 21.864 37.6735 21.48C37.2895 21.0747 36.9802 20.616 36.7455 20.104C36.5322 19.5707 36.4255 19.016 36.4255 18.44C36.4255 17.8427 36.5322 17.288 36.7455 16.776C36.9802 16.2427 37.2895 15.784 37.6735 15.4C38.0788 14.9947 38.5375 14.6853 39.0495 14.472C39.5615 14.2373 40.1055 14.12 40.6815 14.12C41.2575 14.12 41.8122 14.2373 42.3455 14.472C42.8788 14.6853 43.3375 14.9947 43.7215 15.4C44.1268 15.784 44.4468 16.2427 44.6815 16.776C44.9162 17.288 45.0335 17.8427 45.0335 18.44ZM58.74 33C59.444 32.2533 60.18 31.5707 60.948 30.952C61.716 30.3333 62.5267 29.8107 63.38 29.384C64.2547 28.936 65.1827 28.5947 66.164 28.36C67.1667 28.104 68.2333 27.976 69.364 27.976C71.156 27.976 72.724 28.2747 74.068 28.872C75.4333 29.4693 76.5747 30.312 77.492 31.4C78.4093 32.4667 79.1027 33.7573 79.572 35.272C80.0413 36.7867 80.276 38.4613 80.276 40.296V61H74.004V40.296C74.004 37.9707 73.4707 36.168 72.404 34.888C71.3373 33.5867 69.7053 32.936 67.508 32.936C65.908 32.936 64.404 33.32 62.996 34.088C61.6093 34.8347 60.3187 35.8587 59.124 37.16V61H52.884V28.488H56.628C57.5027 28.488 58.0467 28.904 58.26 29.736L58.74 33ZM100.121 44.776C101.23 44.776 102.201 44.6267 103.033 44.328C103.886 44.0293 104.59 43.6133 105.145 43.08C105.721 42.5253 106.147 41.864 106.425 41.096C106.723 40.328 106.873 39.4853 106.873 38.568C106.873 36.6907 106.297 35.1973 105.145 34.088C104.014 32.9573 102.339 32.392 100.121 32.392C97.9232 32.392 96.2485 32.9573 95.0965 34.088C93.9658 35.1973 93.4005 36.6907 93.4005 38.568C93.4005 39.4853 93.5392 40.328 93.8165 41.096C94.1152 41.8427 94.5418 42.4933 95.0965 43.048C95.6725 43.5813 96.3765 44.008 97.2085 44.328C98.0618 44.6267 99.0325 44.776 100.121 44.776ZM110.073 62.696C110.073 61.928 109.859 61.32 109.433 60.872C109.006 60.4027 108.419 60.04 107.673 59.784C106.947 59.5067 106.094 59.3147 105.113 59.208C104.131 59.08 103.097 58.984 102.009 58.92C100.942 58.856 99.8432 58.8027 98.7125 58.76C97.5818 58.696 96.4938 58.5893 95.4485 58.44C94.3392 58.9947 93.4218 59.6667 92.6965 60.456C91.9925 61.2453 91.6405 62.1733 91.6405 63.24C91.6405 63.9227 91.8112 64.5627 92.1525 65.16C92.5152 65.7573 93.0592 66.2693 93.7845 66.696C94.5312 67.144 95.4592 67.4853 96.5685 67.72C97.6992 67.976 99.0432 68.104 100.601 68.104C102.137 68.104 103.491 67.9653 104.665 67.688C105.838 67.432 106.819 67.0587 107.609 66.568C108.419 66.0987 109.027 65.5333 109.433 64.872C109.859 64.2107 110.073 63.4853 110.073 62.696ZM116.409 29.704V32.04C116.409 32.808 115.929 33.288 114.969 33.48L111.481 33.992C111.779 34.6533 112.014 35.3573 112.185 36.104C112.355 36.8293 112.441 37.5973 112.441 38.408C112.441 40.008 112.131 41.4587 111.513 42.76C110.894 44.04 110.041 45.1387 108.953 46.056C107.865 46.9733 106.563 47.6773 105.049 48.168C103.555 48.6587 101.913 48.904 100.121 48.904C98.6485 48.904 97.2725 48.744 95.9925 48.424C95.3525 48.808 94.8618 49.2347 94.5205 49.704C94.2005 50.152 94.0405 50.6 94.0405 51.048C94.0405 51.7947 94.3498 52.3493 94.9685 52.712C95.6085 53.0747 96.4298 53.3413 97.4325 53.512C98.4565 53.6613 99.6192 53.7573 100.921 53.8C102.243 53.8427 103.577 53.9173 104.921 54.024C106.286 54.1093 107.619 54.28 108.921 54.536C110.243 54.7707 111.406 55.1653 112.409 55.72C113.433 56.2533 114.254 57 114.873 57.96C115.513 58.8987 115.833 60.1253 115.833 61.64C115.833 63.048 115.481 64.4133 114.777 65.736C114.094 67.0587 113.091 68.232 111.769 69.256C110.446 70.28 108.835 71.1013 106.937 71.72C105.038 72.3387 102.883 72.648 100.472 72.648C98.0618 72.648 95.9605 72.4133 94.1685 71.944C92.3978 71.4747 90.9152 70.8453 89.7205 70.056C88.5472 69.2667 87.6618 68.3493 87.0645 67.304C86.4885 66.2587 86.2005 65.1707 86.2005 64.04C86.2005 62.4613 86.6912 61.128 87.6725 60.04C88.6538 58.9307 90.0085 58.0667 91.7365 57.448C90.7978 57.0213 90.0512 56.4453 89.4965 55.72C88.9418 54.9733 88.6645 53.992 88.6645 52.776C88.6645 52.3067 88.7498 51.8267 88.9205 51.336C89.0912 50.824 89.3472 50.3227 89.6885 49.832C90.0512 49.32 90.4885 48.84 91.0005 48.392C91.5338 47.944 92.1418 47.5387 92.8245 47.176C91.2245 46.28 89.9658 45.096 89.0485 43.624C88.1312 42.1307 87.6725 40.392 87.6725 38.408C87.6725 36.808 87.9818 35.368 88.6005 34.088C89.2192 32.808 90.0725 31.7093 91.1605 30.792C92.2698 29.8747 93.5818 29.1707 95.0965 28.68C96.6325 28.1893 98.3072 27.944 100.121 27.944C102.937 27.944 105.358 28.5307 107.385 29.704H116.409ZM149.174 28.488V61H145.43C144.577 61 144.022 60.584 143.766 59.752L143.318 56.488C142.614 57.2347 141.878 57.9173 141.11 58.536C140.342 59.1547 139.521 59.688 138.646 60.136C137.771 60.5627 136.843 60.8933 135.862 61.128C134.881 61.384 133.825 61.512 132.694 61.512C130.902 61.512 129.323 61.2133 127.958 60.616C126.614 60.0187 125.483 59.1867 124.566 58.12C123.649 57.032 122.955 55.7307 122.486 54.216C122.017 52.7013 121.782 51.0267 121.782 49.192V28.488H128.054V49.192C128.054 51.5173 128.587 53.3307 129.654 54.632C130.721 55.912 132.353 56.552 134.55 56.552C136.15 56.552 137.643 56.1787 139.03 55.432C140.417 54.664 141.718 53.6187 142.934 52.296V28.488H149.174ZM175.356 46.568C172.817 46.6533 170.663 46.856 168.892 47.176C167.121 47.4747 165.681 47.88 164.572 48.392C163.463 48.904 162.663 49.512 162.172 50.216C161.681 50.8987 161.436 51.6667 161.436 52.52C161.436 53.3307 161.564 54.0347 161.82 54.632C162.097 55.208 162.46 55.688 162.908 56.072C163.377 56.4347 163.921 56.7013 164.54 56.872C165.159 57.0427 165.831 57.128 166.556 57.128C167.516 57.128 168.391 57.032 169.18 56.84C169.991 56.648 170.748 56.3813 171.452 56.04C172.156 55.6773 172.828 55.24 173.468 54.728C174.108 54.216 174.737 53.6293 175.356 52.968V46.568ZM157.052 33.032C158.865 31.304 160.828 30.0133 162.94 29.16C165.073 28.3067 167.409 27.88 169.948 27.88C171.804 27.88 173.447 28.1893 174.876 28.808C176.305 29.4053 177.511 30.248 178.492 31.336C179.473 32.424 180.209 33.7253 180.7 35.24C181.212 36.7547 181.468 38.4293 181.468 40.264V61H178.684C178.065 61 177.596 60.904 177.276 60.712C176.956 60.4987 176.7 60.1147 176.508 59.56L175.836 56.712C175.004 57.48 174.183 58.1627 173.372 58.76C172.561 59.336 171.708 59.8373 170.812 60.264C169.937 60.6693 168.999 60.9787 167.996 61.192C166.993 61.4053 165.884 61.512 164.668 61.512C163.388 61.512 162.183 61.3413 161.052 61C159.943 60.6373 158.972 60.0933 158.14 59.368C157.308 58.6427 156.647 57.736 156.156 56.648C155.687 55.56 155.452 54.2907 155.452 52.84C155.452 51.56 155.793 50.3333 156.476 49.16C157.18 47.9653 158.311 46.8987 159.868 45.96C161.447 45.0213 163.495 44.2533 166.012 43.656C168.551 43.0587 171.665 42.7173 175.356 42.632V40.264C175.356 37.8107 174.833 35.976 173.788 34.76C172.743 33.544 171.207 32.936 169.18 32.936C167.815 32.936 166.663 33.1067 165.724 33.448C164.807 33.7893 164.007 34.1733 163.324 34.6C162.663 35.0053 162.076 35.3787 161.564 35.72C161.073 36.0613 160.561 36.232 160.028 36.232C159.601 36.232 159.228 36.1147 158.908 35.88C158.609 35.6453 158.364 35.368 158.172 35.048L157.052 33.032ZM206.83 55.592C208.558 55.592 210.03 55.3893 211.246 54.984C212.483 54.5787 213.486 54.024 214.254 53.32C215.043 52.616 215.619 51.784 215.982 50.824C216.345 49.8427 216.526 48.776 216.526 47.624C216.526 45.3413 215.737 43.5493 214.158 42.248C212.579 40.9253 210.137 40.264 206.83 40.264H197.23V55.592H206.83ZM197.23 20.392V35.432H205.07C208.419 35.432 210.905 34.76 212.526 33.416C214.169 32.0507 214.99 30.216 214.99 27.912C214.99 25.288 214.211 23.3787 212.654 22.184C211.097 20.9893 208.675 20.392 205.39 20.392H197.23ZM205.39 15.048C208.27 15.048 210.734 15.3253 212.782 15.88C214.851 16.4347 216.547 17.2347 217.87 18.28C219.193 19.3253 220.163 20.5947 220.782 22.088C221.422 23.56 221.742 25.2347 221.742 27.112C221.742 28.2213 221.571 29.288 221.23 30.312C220.889 31.336 220.366 32.296 219.662 33.192C218.958 34.0667 218.073 34.856 217.006 35.56C215.939 36.264 214.681 36.8507 213.23 37.32C219.907 38.6427 223.246 42.1307 223.246 47.784C223.246 49.7467 222.883 51.5387 222.158 53.16C221.433 54.76 220.377 56.1467 218.99 57.32C217.603 58.4933 215.897 59.4 213.87 60.04C211.843 60.68 209.539 61 206.958 61H190.414V15.048H205.39ZM235.897 34.728C236.942 32.5947 238.201 30.92 239.673 29.704C241.145 28.488 242.916 27.88 244.985 27.88C245.689 27.88 246.35 27.9653 246.969 28.136C247.609 28.2853 248.164 28.52 248.633 28.84L248.217 33.544C248.068 34.12 247.716 34.408 247.161 34.408C246.862 34.408 246.414 34.3547 245.817 34.248C245.22 34.12 244.58 34.056 243.897 34.056C242.894 34.056 242.009 34.2053 241.241 34.504C240.473 34.7813 239.78 35.208 239.161 35.784C238.564 36.3387 238.03 37.032 237.561 37.864C237.092 38.6747 236.654 39.6027 236.249 40.648V61H230.009V28.488H233.593C234.276 28.488 234.734 28.616 234.969 28.872C235.225 29.1067 235.406 29.5333 235.513 30.152L235.897 34.728ZM259.975 28.488V61H253.735V28.488H259.975ZM261.159 18.44C261.159 19.016 261.041 19.5707 260.807 20.104C260.572 20.616 260.252 21.0747 259.847 21.48C259.463 21.864 259.004 22.1733 258.47 22.408C257.937 22.6213 257.383 22.728 256.807 22.728C256.231 22.728 255.687 22.6213 255.175 22.408C254.663 22.1733 254.204 21.864 253.799 21.48C253.415 21.0747 253.105 20.616 252.871 20.104C252.657 19.5707 252.551 19.016 252.551 18.44C252.551 17.8427 252.657 17.288 252.871 16.776C253.105 16.2427 253.415 15.784 253.799 15.4C254.204 14.9947 254.663 14.6853 255.175 14.472C255.687 14.2373 256.231 14.12 256.807 14.12C257.383 14.12 257.937 14.2373 258.47 14.472C259.004 14.6853 259.463 14.9947 259.847 15.4C260.252 15.784 260.572 16.2427 260.807 16.776C261.041 17.288 261.159 17.8427 261.159 18.44ZM289.969 36.36C288.945 35.016 287.836 34.0773 286.641 33.544C285.468 33.0107 284.145 32.744 282.673 32.744C279.814 32.744 277.596 33.7787 276.017 35.848C274.46 37.896 273.681 40.8933 273.681 44.84C273.681 46.9093 273.852 48.68 274.193 50.152C274.556 51.6027 275.068 52.7973 275.729 53.736C276.412 54.6533 277.244 55.336 278.225 55.784C279.206 56.2107 280.316 56.424 281.553 56.424C283.366 56.424 284.934 56.0187 286.257 55.208C287.58 54.3973 288.817 53.256 289.969 51.784V36.36ZM296.241 13.768V61H292.465C291.59 61 291.046 60.584 290.833 59.752L290.289 56.008C288.902 57.6507 287.324 58.9733 285.553 59.976C283.804 60.9573 281.777 61.448 279.473 61.448C277.617 61.448 275.932 61.0853 274.417 60.36C272.924 59.6347 271.644 58.5787 270.577 57.192C269.51 55.784 268.689 54.0453 268.113 51.976C267.537 49.9067 267.249 47.528 267.249 44.84C267.249 42.4293 267.569 40.1893 268.209 38.12C268.849 36.0507 269.777 34.2587 270.993 32.744C272.209 31.2293 273.681 30.0453 275.409 29.192C277.137 28.3173 279.089 27.88 281.265 27.88C283.228 27.88 284.892 28.2 286.257 28.84C287.644 29.48 288.881 30.3867 289.969 31.56V13.768H296.241ZM316.371 44.776C317.48 44.776 318.451 44.6267 319.283 44.328C320.136 44.0293 320.84 43.6133 321.395 43.08C321.971 42.5253 322.397 41.864 322.675 41.096C322.973 40.328 323.123 39.4853 323.123 38.568C323.123 36.6907 322.547 35.1973 321.395 34.088C320.264 32.9573 318.589 32.392 316.371 32.392C314.173 32.392 312.499 32.9573 311.347 34.088C310.216 35.1973 309.651 36.6907 309.651 38.568C309.651 39.4853 309.789 40.328 310.067 41.096C310.365 41.8427 310.792 42.4933 311.347 43.048C311.923 43.5813 312.627 44.008 313.459 44.328C314.312 44.6267 315.283 44.776 316.371 44.776ZM326.323 62.696C326.323 61.928 326.109 61.32 325.683 60.872C325.256 60.4027 324.669 60.04 323.923 59.784C323.197 59.5067 322.344 59.3147 321.363 59.208C320.381 59.08 319.347 58.984 318.259 58.92C317.192 58.856 316.093 58.8027 314.963 58.76C313.832 58.696 312.744 58.5893 311.699 58.44C310.589 58.9947 309.672 59.6667 308.947 60.456C308.243 61.2453 307.891 62.1733 307.891 63.24C307.891 63.9227 308.061 64.5627 308.403 65.16C308.765 65.7573 309.309 66.2693 310.035 66.696C310.781 67.144 311.709 67.4853 312.819 67.72C313.949 67.976 315.293 68.104 316.851 68.104C318.387 68.104 319.741 67.9653 320.915 67.688C322.088 67.432 323.069 67.0587 323.859 66.568C324.669 66.0987 325.277 65.5333 325.683 64.872C326.109 64.2107 326.323 63.4853 326.323 62.696ZM332.659 29.704V32.04C332.659 32.808 332.179 33.288 331.219 33.48L327.731 33.992C328.029 34.6533 328.264 35.3573 328.435 36.104C328.605 36.8293 328.691 37.5973 328.691 38.408C328.691 40.008 328.381 41.4587 327.763 42.76C327.144 44.04 326.291 45.1387 325.203 46.056C324.115 46.9733 322.813 47.6773 321.299 48.168C319.805 48.6587 318.163 48.904 316.371 48.904C314.899 48.904 313.523 48.744 312.243 48.424C311.603 48.808 311.112 49.2347 310.771 49.704C310.451 50.152 310.291 50.6 310.291 51.048C310.291 51.7947 310.6 52.3493 311.219 52.712C311.859 53.0747 312.68 53.3413 313.683 53.512C314.707 53.6613 315.869 53.7573 317.171 53.8C318.493 53.8427 319.827 53.9173 321.171 54.024C322.536 54.1093 323.869 54.28 325.171 54.536C326.493 54.7707 327.656 55.1653 328.659 55.72C329.683 56.2533 330.504 57 331.123 57.96C331.763 58.8987 332.083 60.1253 332.083 61.64C332.083 63.048 331.731 64.4133 331.027 65.736C330.344 67.0587 329.341 68.232 328.019 69.256C326.696 70.28 325.085 71.1013 323.187 71.72C321.288 72.3387 319.133 72.648 316.722 72.648C314.312 72.648 312.211 72.4133 310.419 71.944C308.648 71.4747 307.165 70.8453 305.971 70.056C304.797 69.2667 303.912 68.3493 303.315 67.304C302.739 66.2587 302.451 65.1707 302.451 64.04C302.451 62.4613 302.941 61.128 303.923 60.04C304.904 58.9307 306.259 58.0667 307.987 57.448C307.048 57.0213 306.301 56.4453 305.747 55.72C305.192 54.9733 304.915 53.992 304.915 52.776C304.915 52.3067 305 51.8267 305.171 51.336C305.341 50.824 305.597 50.3227 305.939 49.832C306.301 49.32 306.739 48.84 307.251 48.392C307.784 47.944 308.392 47.5387 309.075 47.176C307.475 46.28 306.216 45.096 305.299 43.624C304.381 42.1307 303.923 40.392 303.923 38.408C303.923 36.808 304.232 35.368 304.851 34.088C305.469 32.808 306.323 31.7093 307.411 30.792C308.52 29.8747 309.832 29.1707 311.347 28.68C312.883 28.1893 314.557 27.944 316.371 27.944C319.187 27.944 321.608 28.5307 323.635 29.704H332.659ZM359.42 41.128C359.42 39.8907 359.239 38.7493 358.876 37.704C358.535 36.6587 358.023 35.752 357.34 34.984C356.657 34.216 355.825 33.6187 354.844 33.192C353.863 32.7653 352.732 32.552 351.452 32.552C348.828 32.552 346.759 33.3093 345.244 34.824C343.751 36.3387 342.801 38.44 342.396 41.128H359.42ZM364.572 56.36C363.804 57.256 362.919 58.0347 361.916 58.696C360.913 59.336 359.847 59.8587 358.716 60.264C357.585 60.6693 356.412 60.968 355.196 61.16C354.001 61.352 352.817 61.448 351.644 61.448C349.404 61.448 347.324 61.0747 345.404 60.328C343.505 59.56 341.852 58.4507 340.444 57C339.057 55.528 337.969 53.7147 337.18 51.56C336.412 49.384 336.028 46.888 336.028 44.072C336.028 41.8107 336.38 39.7093 337.084 37.768C337.788 35.8053 338.791 34.0987 340.092 32.648C341.415 31.1973 343.025 30.056 344.924 29.224C346.823 28.392 348.956 27.976 351.324 27.976C353.308 27.976 355.132 28.3067 356.796 28.968C358.481 29.608 359.932 30.5467 361.148 31.784C362.364 33.0213 363.313 34.5467 363.996 36.36C364.7 38.1733 365.052 40.2427 365.052 42.568C365.052 43.528 364.945 44.1787 364.732 44.52C364.519 44.84 364.124 45 363.548 45H342.236C342.3 46.9413 342.577 48.6373 343.068 50.088C343.559 51.5173 344.231 52.712 345.084 53.672C345.959 54.632 346.993 55.3467 348.188 55.816C349.383 56.2853 350.716 56.52 352.188 56.52C353.575 56.52 354.769 56.36 355.772 56.04C356.796 55.72 357.671 55.3787 358.396 55.016C359.143 54.632 359.761 54.28 360.252 53.96C360.764 53.64 361.212 53.48 361.596 53.48C362.108 53.48 362.503 53.672 362.78 54.056L364.572 56.36Z" fill="#1CCA00"/>
</g>
<path d="M34.564 101.596C34.564 101.38 34.604 101.176 34.684 100.984C34.764 100.792 34.872 100.624 35.008 100.48C35.152 100.336 35.32 100.224 35.512 100.144C35.704 100.056 35.912 100.012 36.136 100.012C36.352 100.012 36.556 100.056 36.748 100.144C36.94 100.224 37.108 100.336 37.252 100.48C37.396 100.624 37.508 100.792 37.588 100.984C37.676 101.176 37.72 101.38 37.72 101.596C37.72 101.82 37.676 102.028 37.588 102.22C37.508 102.412 37.396 102.58 37.252 102.724C37.108 102.868 36.94 102.98 36.748 103.06C36.556 103.14 36.352 103.18 36.136 103.18C35.912 103.18 35.704 103.14 35.512 103.06C35.32 102.98 35.152 102.868 35.008 102.724C34.872 102.58 34.764 102.412 34.684 102.22C34.604 102.028 34.564 101.82 34.564 101.596ZM40.2124 101.596C40.2124 101.38 40.2524 101.176 40.3324 100.984C40.4124 100.792 40.5204 100.624 40.6564 100.48C40.8004 100.336 40.9684 100.224 41.1604 100.144C41.3524 100.056 41.5604 100.012 41.7844 100.012C42.0004 100.012 42.2044 100.056 42.3964 100.144C42.5884 100.224 42.7564 100.336 42.9004 100.48C43.0444 100.624 43.1564 100.792 43.2364 100.984C43.3244 101.176 43.3684 101.38 43.3684 101.596C43.3684 101.82 43.3244 102.028 43.2364 102.22C43.1564 102.412 43.0444 102.58 42.9004 102.724C42.7564 102.868 42.5884 102.98 42.3964 103.06C42.2044 103.14 42.0004 103.18 41.7844 103.18C41.5604 103.18 41.3524 103.14 41.1604 103.06C40.9684 102.98 40.8004 102.868 40.6564 102.724C40.5204 102.58 40.4124 102.412 40.3324 102.22C40.2524 102.028 40.2124 101.82 40.2124 101.596ZM45.8609 101.596C45.8609 101.38 45.9009 101.176 45.9809 100.984C46.0609 100.792 46.1689 100.624 46.3049 100.48C46.4489 100.336 46.6169 100.224 46.8089 100.144C47.0009 100.056 47.2089 100.012 47.4329 100.012C47.6489 100.012 47.8529 100.056 48.0449 100.144C48.2369 100.224 48.4049 100.336 48.5489 100.48C48.6929 100.624 48.8049 100.792 48.8849 100.984C48.9729 101.176 49.0169 101.38 49.0169 101.596C49.0169 101.82 48.9729 102.028 48.8849 102.22C48.8049 102.412 48.6929 102.58 48.5489 102.724C48.4049 102.868 48.2369 102.98 48.0449 103.06C47.8529 103.14 47.6489 103.18 47.4329 103.18C47.2089 103.18 47.0009 103.14 46.8089 103.06C46.6169 102.98 46.4489 102.868 46.3049 102.724C46.1689 102.58 46.0609 102.412 45.9809 102.22C45.9009 102.028 45.8609 101.82 45.8609 101.596ZM60.7973 100.816C60.3893 101.272 59.9973 101.652 59.6213 101.956C59.2453 102.26 58.8653 102.504 58.4813 102.688C58.1053 102.864 57.7133 102.988 57.3053 103.06C56.9053 103.132 56.4653 103.168 55.9853 103.168C55.2813 103.168 54.6533 103.048 54.1013 102.808C53.5573 102.568 53.0973 102.228 52.7213 101.788C52.3533 101.348 52.0733 100.82 51.8813 100.204C51.6893 99.588 51.5933 98.904 51.5933 98.152C51.5933 97.496 51.6613 96.856 51.7973 96.232C51.9413 95.6 52.1453 95.008 52.4093 94.456C52.6733 93.896 52.9933 93.384 53.3693 92.92C53.7453 92.448 54.1653 92.044 54.6293 91.708C55.0933 91.364 55.5973 91.1 56.1413 90.916C56.6933 90.724 57.2773 90.628 57.8933 90.628C58.7013 90.628 59.3773 90.772 59.9213 91.06C60.4733 91.348 60.9573 91.768 61.3733 92.32L60.6413 93.208C60.5773 93.272 60.5053 93.328 60.4253 93.376C60.3533 93.424 60.2733 93.448 60.1853 93.448C60.0733 93.448 59.9613 93.4 59.8493 93.304C59.7373 93.208 59.5973 93.104 59.4293 92.992C59.2613 92.872 59.0493 92.764 58.7933 92.668C58.5453 92.572 58.2253 92.524 57.8333 92.524C57.3053 92.524 56.8053 92.668 56.3333 92.956C55.8613 93.236 55.4493 93.628 55.0973 94.132C54.7453 94.636 54.4653 95.232 54.2573 95.92C54.0493 96.608 53.9453 97.356 53.9453 98.164C53.9453 98.644 54.0013 99.08 54.1133 99.472C54.2253 99.864 54.3853 100.196 54.5933 100.468C54.8093 100.74 55.0733 100.952 55.3853 101.104C55.7053 101.248 56.0693 101.32 56.4773 101.32C56.8213 101.32 57.1253 101.284 57.3893 101.212C57.6613 101.14 57.8973 101.052 58.0973 100.948C58.3053 100.844 58.4893 100.728 58.6493 100.6C58.8093 100.472 58.9533 100.356 59.0813 100.252C59.2093 100.148 59.3293 100.06 59.4413 99.988C59.5533 99.916 59.6653 99.88 59.7773 99.88C59.9373 99.88 60.0813 99.952 60.2093 100.096L60.7973 100.816ZM67.0694 101.344C67.6294 101.344 68.1374 101.192 68.5934 100.888C69.0574 100.576 69.4494 100.16 69.7694 99.64C70.0974 99.12 70.3494 98.52 70.5254 97.84C70.7014 97.16 70.7894 96.448 70.7894 95.704C70.7894 94.608 70.5814 93.792 70.1654 93.256C69.7494 92.72 69.1414 92.452 68.3414 92.452C67.7734 92.452 67.2614 92.608 66.8054 92.92C66.3494 93.224 65.9574 93.636 65.6294 94.156C65.3094 94.668 65.0614 95.264 64.8854 95.944C64.7094 96.624 64.6214 97.336 64.6214 98.08C64.6214 99.16 64.8294 99.976 65.2454 100.528C65.6614 101.072 66.2694 101.344 67.0694 101.344ZM66.8534 103.168C66.1894 103.168 65.5774 103.056 65.0174 102.832C64.4574 102.6 63.9734 102.268 63.5654 101.836C63.1654 101.404 62.8494 100.876 62.6174 100.252C62.3934 99.62 62.2814 98.9 62.2814 98.092C62.2814 97.06 62.4414 96.092 62.7614 95.188C63.0894 94.276 63.5334 93.484 64.0934 92.812C64.6614 92.132 65.3254 91.6 66.0854 91.216C66.8534 90.824 67.6774 90.628 68.5574 90.628C69.2214 90.628 69.8334 90.744 70.3934 90.976C70.9534 91.2 71.4334 91.528 71.8334 91.96C72.2414 92.392 72.5574 92.924 72.7814 93.556C73.0134 94.18 73.1294 94.892 73.1294 95.692C73.1294 96.716 72.9654 97.684 72.6374 98.596C72.3174 99.5 71.8734 100.292 71.3054 100.972C70.7454 101.652 70.0814 102.188 69.3134 102.58C68.5534 102.972 67.7334 103.168 66.8534 103.168ZM78.0021 93.724C78.6501 92.7 79.3741 91.928 80.1741 91.408C80.9741 90.888 81.7981 90.628 82.6461 90.628C83.1581 90.628 83.6101 90.732 84.0021 90.94C84.4021 91.14 84.7261 91.436 84.9741 91.828C85.2221 92.22 85.3901 92.704 85.4781 93.28C85.5741 93.848 85.5741 94.5 85.4781 95.236L84.5661 103H82.2261L83.1501 95.236C83.2621 94.316 83.2061 93.644 82.9821 93.22C82.7661 92.788 82.3621 92.572 81.7701 92.572C81.4021 92.572 81.0261 92.676 80.6421 92.884C80.2581 93.084 79.8861 93.372 79.5261 93.748C79.1741 94.116 78.8421 94.564 78.5301 95.092C78.2261 95.62 77.9701 96.208 77.7621 96.856L77.0781 103H74.7381L76.1901 90.784H77.3661C77.6221 90.784 77.8181 90.848 77.9541 90.976C78.0901 91.104 78.1581 91.304 78.1581 91.576L78.0021 93.724ZM90.7756 93.724C91.4236 92.7 92.1476 91.928 92.9476 91.408C93.7476 90.888 94.5716 90.628 95.4196 90.628C95.9316 90.628 96.3836 90.732 96.7756 90.94C97.1756 91.14 97.4996 91.436 97.7476 91.828C97.9956 92.22 98.1636 92.704 98.2516 93.28C98.3476 93.848 98.3476 94.5 98.2516 95.236L97.3396 103H94.9996L95.9236 95.236C96.0356 94.316 95.9796 93.644 95.7556 93.22C95.5396 92.788 95.1356 92.572 94.5436 92.572C94.1756 92.572 93.7996 92.676 93.4156 92.884C93.0316 93.084 92.6596 93.372 92.2996 93.748C91.9476 94.116 91.6156 94.564 91.3036 95.092C90.9996 95.62 90.7436 96.208 90.5356 96.856L89.8516 103H87.5116L88.9636 90.784H90.1396C90.3956 90.784 90.5916 90.848 90.7276 90.976C90.8636 91.104 90.9316 91.304 90.9316 91.576L90.7756 93.724ZM106.513 92.308C106.033 92.308 105.593 92.408 105.193 92.608C104.793 92.8 104.433 93.072 104.113 93.424C103.793 93.768 103.521 94.176 103.297 94.648C103.073 95.112 102.897 95.62 102.769 96.172C103.945 96.02 104.885 95.852 105.589 95.668C106.301 95.484 106.849 95.284 107.233 95.068C107.617 94.844 107.869 94.608 107.989 94.36C108.117 94.112 108.181 93.848 108.181 93.568C108.181 93.432 108.149 93.292 108.085 93.148C108.029 92.996 107.933 92.86 107.797 92.74C107.669 92.612 107.497 92.508 107.281 92.428C107.073 92.348 106.817 92.308 106.513 92.308ZM109.993 100.744C109.577 101.168 109.173 101.532 108.781 101.836C108.389 102.14 107.985 102.392 107.569 102.592C107.161 102.792 106.733 102.936 106.285 103.024C105.837 103.12 105.349 103.168 104.821 103.168C104.125 103.168 103.493 103.052 102.925 102.82C102.365 102.58 101.889 102.244 101.497 101.812C101.105 101.38 100.801 100.86 100.585 100.252C100.377 99.636 100.273 98.948 100.273 98.188C100.273 97.556 100.337 96.932 100.465 96.316C100.601 95.692 100.797 95.104 101.053 94.552C101.309 93.992 101.621 93.472 101.989 92.992C102.357 92.512 102.777 92.1 103.249 91.756C103.721 91.404 104.241 91.132 104.809 90.94C105.377 90.74 105.989 90.64 106.645 90.64C107.269 90.64 107.809 90.728 108.265 90.904C108.721 91.08 109.097 91.308 109.393 91.588C109.697 91.86 109.921 92.164 110.065 92.5C110.209 92.836 110.281 93.164 110.281 93.484C110.281 94.012 110.173 94.5 109.957 94.948C109.741 95.388 109.345 95.788 108.769 96.148C108.201 96.5 107.417 96.808 106.417 97.072C105.417 97.336 104.133 97.548 102.565 97.708C102.557 97.78 102.553 97.852 102.553 97.924C102.553 97.996 102.553 98.068 102.553 98.14C102.553 99.188 102.777 99.98 103.225 100.516C103.681 101.052 104.365 101.32 105.277 101.32C105.653 101.32 105.989 101.284 106.285 101.212C106.581 101.132 106.841 101.036 107.065 100.924C107.297 100.812 107.501 100.692 107.677 100.564C107.853 100.428 108.013 100.304 108.157 100.192C108.309 100.08 108.449 99.988 108.577 99.916C108.705 99.836 108.837 99.796 108.973 99.796C109.061 99.796 109.137 99.82 109.201 99.868C109.273 99.908 109.341 99.96 109.405 100.024L109.993 100.744ZM120.961 100.816C120.553 101.272 120.161 101.652 119.785 101.956C119.409 102.26 119.029 102.504 118.645 102.688C118.269 102.864 117.877 102.988 117.469 103.06C117.069 103.132 116.629 103.168 116.149 103.168C115.445 103.168 114.817 103.048 114.265 102.808C113.721 102.568 113.261 102.228 112.885 101.788C112.517 101.348 112.237 100.82 112.045 100.204C111.853 99.588 111.757 98.904 111.757 98.152C111.757 97.496 111.825 96.856 111.961 96.232C112.105 95.6 112.309 95.008 112.573 94.456C112.837 93.896 113.157 93.384 113.533 92.92C113.909 92.448 114.329 92.044 114.793 91.708C115.257 91.364 115.761 91.1 116.305 90.916C116.857 90.724 117.441 90.628 118.057 90.628C118.865 90.628 119.541 90.772 120.085 91.06C120.637 91.348 121.121 91.768 121.537 92.32L120.805 93.208C120.741 93.272 120.669 93.328 120.589 93.376C120.517 93.424 120.437 93.448 120.349 93.448C120.237 93.448 120.125 93.4 120.013 93.304C119.901 93.208 119.761 93.104 119.593 92.992C119.425 92.872 119.213 92.764 118.957 92.668C118.709 92.572 118.389 92.524 117.997 92.524C117.469 92.524 116.969 92.668 116.497 92.956C116.025 93.236 115.613 93.628 115.261 94.132C114.909 94.636 114.629 95.232 114.421 95.92C114.213 96.608 114.109 97.356 114.109 98.164C114.109 98.644 114.165 99.08 114.277 99.472C114.389 99.864 114.549 100.196 114.757 100.468C114.973 100.74 115.237 100.952 115.549 101.104C115.869 101.248 116.233 101.32 116.641 101.32C116.985 101.32 117.289 101.284 117.553 101.212C117.825 101.14 118.061 101.052 118.261 100.948C118.469 100.844 118.653 100.728 118.813 100.6C118.973 100.472 119.117 100.356 119.245 100.252C119.373 100.148 119.493 100.06 119.605 99.988C119.717 99.916 119.829 99.88 119.941 99.88C120.101 99.88 120.245 99.952 120.373 100.096L120.961 100.816ZM134.656 92.668H134.644L133.384 103H131.116L132.388 92.668H126.844L126.124 98.512C126.084 98.84 126.052 99.104 126.028 99.304C126.004 99.504 125.984 99.664 125.968 99.784C125.96 99.896 125.956 99.976 125.956 100.024C125.956 100.072 125.956 100.108 125.956 100.132C125.956 100.508 126.044 100.792 126.22 100.984C126.404 101.176 126.652 101.272 126.964 101.272C127.164 101.272 127.336 101.244 127.48 101.188C127.632 101.132 127.76 101.072 127.864 101.008C127.976 100.936 128.068 100.872 128.14 100.816C128.22 100.76 128.292 100.732 128.356 100.732C128.436 100.732 128.492 100.752 128.524 100.792C128.564 100.824 128.604 100.88 128.644 100.96L129.148 102.088C128.74 102.44 128.284 102.712 127.78 102.904C127.276 103.096 126.764 103.192 126.244 103.192C125.444 103.192 124.812 102.976 124.348 102.544C123.892 102.104 123.652 101.472 123.628 100.648C123.628 100.6 123.628 100.54 123.628 100.468C123.636 100.388 123.644 100.276 123.652 100.132C123.668 99.988 123.688 99.796 123.712 99.556C123.736 99.316 123.772 99.008 123.82 98.632L124.552 92.668H123.292C123.164 92.668 123.06 92.628 122.98 92.548C122.9 92.46 122.868 92.336 122.884 92.176L123.004 91.276L124.84 91L125.776 87.34C125.816 87.204 125.884 87.1 125.98 87.028C126.076 86.948 126.192 86.908 126.328 86.908H127.564L127.048 91.024H134.848L134.656 92.668ZM135.892 87.04C135.892 87.256 135.844 87.464 135.748 87.664C135.66 87.856 135.54 88.028 135.388 88.18C135.244 88.324 135.076 88.44 134.884 88.528C134.692 88.608 134.496 88.648 134.296 88.648C134.096 88.648 133.904 88.608 133.72 88.528C133.536 88.44 133.372 88.324 133.228 88.18C133.092 88.028 132.98 87.856 132.892 87.664C132.812 87.464 132.772 87.256 132.772 87.04C132.772 86.824 132.812 86.62 132.892 86.428C132.98 86.228 133.096 86.056 133.24 85.912C133.384 85.76 133.548 85.64 133.732 85.552C133.916 85.464 134.108 85.42 134.308 85.42C134.508 85.42 134.704 85.464 134.896 85.552C135.088 85.632 135.256 85.748 135.4 85.9C135.552 86.044 135.672 86.216 135.76 86.416C135.848 86.608 135.892 86.816 135.892 87.04ZM139.854 93.724C140.502 92.7 141.226 91.928 142.026 91.408C142.826 90.888 143.65 90.628 144.498 90.628C145.01 90.628 145.462 90.732 145.854 90.94C146.254 91.14 146.578 91.436 146.826 91.828C147.074 92.22 147.242 92.704 147.33 93.28C147.426 93.848 147.426 94.5 147.33 95.236L146.418 103H144.078L145.002 95.236C145.114 94.316 145.058 93.644 144.834 93.22C144.618 92.788 144.214 92.572 143.622 92.572C143.254 92.572 142.878 92.676 142.494 92.884C142.11 93.084 141.738 93.372 141.378 93.748C141.026 94.116 140.694 94.564 140.382 95.092C140.078 95.62 139.822 96.208 139.614 96.856L138.93 103H136.59L138.042 90.784H139.218C139.474 90.784 139.67 90.848 139.806 90.976C139.942 91.104 140.01 91.304 140.01 91.576L139.854 93.724ZM156.311 103.228C156.311 103.044 156.295 102.872 156.263 102.712C156.239 102.552 156.203 102.404 156.155 102.268C155.123 102.092 154.235 102.024 153.491 102.064C152.747 102.104 152.131 102.216 151.643 102.4C151.163 102.576 150.807 102.808 150.575 103.096C150.351 103.384 150.239 103.692 150.239 104.02C150.239 104.572 150.467 104.992 150.923 105.28C151.379 105.568 152.043 105.712 152.915 105.712C153.419 105.712 153.879 105.644 154.295 105.508C154.719 105.38 155.079 105.204 155.375 104.98C155.671 104.756 155.899 104.492 156.059 104.188C156.227 103.884 156.311 103.564 156.311 103.228ZM154.031 97.444C154.439 97.444 154.803 97.352 155.123 97.168C155.443 96.984 155.711 96.744 155.927 96.448C156.143 96.152 156.307 95.82 156.419 95.452C156.531 95.076 156.591 94.696 156.599 94.312C156.599 93.632 156.427 93.116 156.083 92.764C155.747 92.412 155.279 92.236 154.679 92.236C154.271 92.236 153.907 92.324 153.587 92.5C153.275 92.668 153.011 92.896 152.795 93.184C152.579 93.464 152.415 93.792 152.303 94.168C152.191 94.536 152.135 94.916 152.135 95.308C152.135 95.996 152.299 96.524 152.627 96.892C152.963 97.26 153.431 97.444 154.031 97.444ZM160.595 91.24L160.487 92.02C160.447 92.34 160.279 92.548 159.983 92.644L158.543 92.932C158.607 93.116 158.655 93.316 158.687 93.532C158.719 93.748 158.735 93.976 158.735 94.216C158.727 94.608 158.679 94.964 158.591 95.284C158.503 95.596 158.391 95.884 158.255 96.148C158.127 96.412 157.987 96.664 157.835 96.904C157.683 97.136 157.539 97.372 157.403 97.612C157.275 97.844 157.167 98.088 157.079 98.344C156.991 98.592 156.947 98.864 156.947 99.16C156.947 99.488 157.023 99.792 157.175 100.072C157.335 100.344 157.507 100.628 157.691 100.924C157.883 101.212 158.055 101.524 158.207 101.86C158.367 102.196 158.447 102.592 158.447 103.048C158.439 103.624 158.303 104.172 158.039 104.692C157.775 105.212 157.395 105.668 156.899 106.06C156.411 106.46 155.811 106.776 155.099 107.008C154.395 107.24 153.599 107.356 152.711 107.356C151.999 107.356 151.351 107.28 150.767 107.128C150.191 106.984 149.699 106.776 149.291 106.504C148.883 106.24 148.567 105.92 148.343 105.544C148.119 105.168 148.007 104.756 148.007 104.308C148.007 103.788 148.119 103.328 148.343 102.928C148.559 102.528 148.855 102.188 149.231 101.908C149.607 101.62 150.043 101.388 150.539 101.212C151.035 101.028 151.559 100.896 152.111 100.816C152.663 100.728 153.223 100.688 153.791 100.696C154.367 100.696 154.923 100.736 155.459 100.816C155.395 100.68 155.343 100.536 155.303 100.384C155.271 100.232 155.255 100.064 155.255 99.88C155.255 99.64 155.291 99.388 155.363 99.124C155.435 98.852 155.551 98.56 155.711 98.248C155.407 98.456 155.067 98.616 154.691 98.728C154.315 98.84 153.879 98.896 153.383 98.896C152.919 98.896 152.483 98.82 152.075 98.668C151.667 98.516 151.307 98.292 150.995 97.996C150.691 97.692 150.447 97.316 150.263 96.868C150.087 96.42 149.999 95.896 149.999 95.296C149.999 94.712 150.107 94.14 150.323 93.58C150.539 93.02 150.855 92.524 151.271 92.092C151.687 91.652 152.203 91.3 152.819 91.036C153.435 90.764 154.143 90.628 154.943 90.628C155.375 90.628 155.787 90.68 156.179 90.784C156.571 90.88 156.927 91.032 157.247 91.24H160.595ZM177.391 90.808L169.207 106.564C169.023 106.916 168.755 107.092 168.403 107.092H166.675L169.339 102.22L166.195 90.808H168.139C168.323 90.808 168.459 90.852 168.547 90.94C168.635 91.028 168.699 91.14 168.739 91.276L170.587 98.596C170.627 98.772 170.659 98.948 170.683 99.124C170.715 99.292 170.739 99.468 170.755 99.652C170.827 99.468 170.899 99.288 170.971 99.112C171.051 98.936 171.135 98.76 171.223 98.584L174.859 91.264C174.923 91.128 175.015 91.02 175.135 90.94C175.263 90.852 175.391 90.808 175.519 90.808H177.391ZM182.101 101.344C182.661 101.344 183.169 101.192 183.625 100.888C184.089 100.576 184.481 100.16 184.801 99.64C185.129 99.12 185.381 98.52 185.557 97.84C185.733 97.16 185.821 96.448 185.821 95.704C185.821 94.608 185.613 93.792 185.197 93.256C184.781 92.72 184.173 92.452 183.373 92.452C182.805 92.452 182.293 92.608 181.837 92.92C181.381 93.224 180.989 93.636 180.661 94.156C180.341 94.668 180.093 95.264 179.917 95.944C179.741 96.624 179.653 97.336 179.653 98.08C179.653 99.16 179.861 99.976 180.277 100.528C180.693 101.072 181.301 101.344 182.101 101.344ZM181.885 103.168C181.221 103.168 180.609 103.056 180.049 102.832C179.489 102.6 179.005 102.268 178.597 101.836C178.197 101.404 177.881 100.876 177.649 100.252C177.425 99.62 177.313 98.9 177.313 98.092C177.313 97.06 177.473 96.092 177.793 95.188C178.121 94.276 178.565 93.484 179.125 92.812C179.693 92.132 180.357 91.6 181.117 91.216C181.885 90.824 182.709 90.628 183.589 90.628C184.253 90.628 184.865 90.744 185.425 90.976C185.985 91.2 186.465 91.528 186.865 91.96C187.273 92.392 187.589 92.924 187.813 93.556C188.045 94.18 188.161 94.892 188.161 95.692C188.161 96.716 187.997 97.684 187.669 98.596C187.349 99.5 186.905 100.292 186.337 100.972C185.777 101.652 185.113 102.188 184.345 102.58C183.585 102.972 182.765 103.168 181.885 103.168ZM200.941 90.808L199.465 103H198.301C197.733 103 197.449 102.72 197.449 102.16L197.593 100.168C196.961 101.16 196.249 101.908 195.457 102.412C194.673 102.916 193.865 103.168 193.033 103.168C192.521 103.168 192.065 103.068 191.665 102.868C191.273 102.66 190.953 102.36 190.705 101.968C190.457 101.576 190.285 101.096 190.189 100.528C190.101 99.952 190.101 99.296 190.189 98.56L191.113 90.808H193.441L192.529 98.56C192.417 99.472 192.469 100.144 192.685 100.576C192.901 101.008 193.309 101.224 193.909 101.224C194.269 101.224 194.637 101.128 195.013 100.936C195.389 100.736 195.753 100.456 196.105 100.096C196.457 99.736 196.781 99.3 197.077 98.788C197.381 98.276 197.641 97.708 197.857 97.084L198.601 90.808H200.941ZM208.882 100.648C208.882 100.6 208.882 100.54 208.882 100.468C208.882 100.388 208.886 100.276 208.894 100.132C208.91 99.988 208.93 99.796 208.954 99.556C208.986 99.316 209.026 99.008 209.074 98.632L209.806 92.704H208.498C208.378 92.704 208.278 92.664 208.198 92.584C208.126 92.496 208.102 92.368 208.126 92.2L208.234 91.252L210.094 90.976L211.03 87.34C211.07 87.204 211.134 87.1 211.222 87.028C211.318 86.948 211.434 86.908 211.57 86.908H212.818L212.302 91H215.434L215.242 92.704H212.098L211.378 98.512C211.338 98.84 211.306 99.104 211.282 99.304C211.258 99.504 211.238 99.664 211.222 99.784C211.214 99.896 211.206 99.976 211.198 100.024C211.198 100.072 211.198 100.108 211.198 100.132C211.198 100.508 211.29 100.792 211.474 100.984C211.658 101.176 211.902 101.272 212.206 101.272C212.406 101.272 212.578 101.244 212.722 101.188C212.874 101.132 213.006 101.072 213.118 101.008C213.23 100.936 213.322 100.872 213.394 100.816C213.474 100.76 213.546 100.732 213.61 100.732C213.682 100.732 213.738 100.752 213.778 100.792C213.818 100.824 213.858 100.88 213.898 100.96L214.39 102.088C213.982 102.44 213.526 102.712 213.022 102.904C212.518 103.096 212.01 103.192 211.498 103.192C210.698 103.192 210.066 102.976 209.602 102.544C209.138 102.104 208.898 101.472 208.882 100.648ZM221.03 101.344C221.59 101.344 222.098 101.192 222.554 100.888C223.018 100.576 223.41 100.16 223.73 99.64C224.058 99.12 224.31 98.52 224.486 97.84C224.662 97.16 224.75 96.448 224.75 95.704C224.75 94.608 224.542 93.792 224.126 93.256C223.71 92.72 223.102 92.452 222.302 92.452C221.734 92.452 221.222 92.608 220.766 92.92C220.31 93.224 219.918 93.636 219.59 94.156C219.27 94.668 219.022 95.264 218.846 95.944C218.67 96.624 218.582 97.336 218.582 98.08C218.582 99.16 218.79 99.976 219.206 100.528C219.622 101.072 220.23 101.344 221.03 101.344ZM220.814 103.168C220.15 103.168 219.538 103.056 218.978 102.832C218.418 102.6 217.934 102.268 217.526 101.836C217.126 101.404 216.81 100.876 216.578 100.252C216.354 99.62 216.242 98.9 216.242 98.092C216.242 97.06 216.402 96.092 216.722 95.188C217.05 94.276 217.494 93.484 218.054 92.812C218.622 92.132 219.286 91.6 220.046 91.216C220.814 90.824 221.638 90.628 222.518 90.628C223.182 90.628 223.794 90.744 224.354 90.976C224.914 91.2 225.394 91.528 225.794 91.96C226.202 92.392 226.518 92.924 226.742 93.556C226.974 94.18 227.09 94.892 227.09 95.692C227.09 96.716 226.926 97.684 226.598 98.596C226.278 99.5 225.834 100.292 225.266 100.972C224.706 101.652 224.042 102.188 223.274 102.58C222.514 102.972 221.694 103.168 220.814 103.168ZM235.038 100.648C235.038 100.6 235.038 100.54 235.038 100.468C235.038 100.388 235.042 100.276 235.05 100.132C235.066 99.988 235.086 99.796 235.11 99.556C235.142 99.316 235.182 99.008 235.23 98.632L235.962 92.704H234.654C234.534 92.704 234.434 92.664 234.354 92.584C234.282 92.496 234.258 92.368 234.282 92.2L234.39 91.252L236.25 90.976L237.186 87.34C237.226 87.204 237.29 87.1 237.378 87.028C237.474 86.948 237.59 86.908 237.726 86.908H238.974L238.458 91H241.59L241.398 92.704H238.254L237.534 98.512C237.494 98.84 237.462 99.104 237.438 99.304C237.414 99.504 237.394 99.664 237.378 99.784C237.37 99.896 237.362 99.976 237.354 100.024C237.354 100.072 237.354 100.108 237.354 100.132C237.354 100.508 237.446 100.792 237.63 100.984C237.814 101.176 238.058 101.272 238.362 101.272C238.562 101.272 238.734 101.244 238.878 101.188C239.03 101.132 239.162 101.072 239.274 101.008C239.386 100.936 239.478 100.872 239.55 100.816C239.63 100.76 239.702 100.732 239.766 100.732C239.838 100.732 239.894 100.752 239.934 100.792C239.974 100.824 240.014 100.88 240.054 100.96L240.546 102.088C240.138 102.44 239.682 102.712 239.178 102.904C238.674 103.096 238.166 103.192 237.654 103.192C236.854 103.192 236.222 102.976 235.758 102.544C235.294 102.104 235.054 101.472 235.038 100.648ZM246.148 93.34C246.772 92.444 247.46 91.768 248.212 91.312C248.964 90.856 249.732 90.628 250.516 90.628C251.036 90.628 251.492 90.732 251.884 90.94C252.284 91.14 252.608 91.436 252.856 91.828C253.104 92.22 253.272 92.704 253.36 93.28C253.456 93.848 253.46 94.5 253.372 95.236L252.46 103H250.12L251.032 95.236C251.144 94.316 251.088 93.64 250.864 93.208C250.648 92.776 250.24 92.56 249.64 92.56C249.288 92.56 248.928 92.656 248.56 92.848C248.2 93.04 247.844 93.312 247.492 93.664C247.148 94.008 246.824 94.432 246.52 94.936C246.224 95.432 245.968 95.984 245.752 96.592L244.972 103H242.632L244.78 85.288H247.12L246.148 93.34ZM261.646 92.308C261.166 92.308 260.726 92.408 260.326 92.608C259.926 92.8 259.566 93.072 259.246 93.424C258.926 93.768 258.654 94.176 258.43 94.648C258.206 95.112 258.03 95.62 257.902 96.172C259.078 96.02 260.018 95.852 260.722 95.668C261.434 95.484 261.982 95.284 262.366 95.068C262.75 94.844 263.002 94.608 263.122 94.36C263.25 94.112 263.314 93.848 263.314 93.568C263.314 93.432 263.282 93.292 263.218 93.148C263.162 92.996 263.066 92.86 262.93 92.74C262.802 92.612 262.63 92.508 262.414 92.428C262.206 92.348 261.95 92.308 261.646 92.308ZM265.126 100.744C264.71 101.168 264.306 101.532 263.914 101.836C263.522 102.14 263.118 102.392 262.702 102.592C262.294 102.792 261.866 102.936 261.418 103.024C260.97 103.12 260.482 103.168 259.954 103.168C259.258 103.168 258.626 103.052 258.058 102.82C257.498 102.58 257.022 102.244 256.63 101.812C256.238 101.38 255.934 100.86 255.718 100.252C255.51 99.636 255.406 98.948 255.406 98.188C255.406 97.556 255.47 96.932 255.598 96.316C255.734 95.692 255.93 95.104 256.186 94.552C256.442 93.992 256.754 93.472 257.122 92.992C257.49 92.512 257.91 92.1 258.382 91.756C258.854 91.404 259.374 91.132 259.942 90.94C260.51 90.74 261.122 90.64 261.778 90.64C262.402 90.64 262.942 90.728 263.398 90.904C263.854 91.08 264.23 91.308 264.526 91.588C264.83 91.86 265.054 92.164 265.198 92.5C265.342 92.836 265.414 93.164 265.414 93.484C265.414 94.012 265.306 94.5 265.09 94.948C264.874 95.388 264.478 95.788 263.902 96.148C263.334 96.5 262.55 96.808 261.55 97.072C260.55 97.336 259.266 97.548 257.698 97.708C257.69 97.78 257.686 97.852 257.686 97.924C257.686 97.996 257.686 98.068 257.686 98.14C257.686 99.188 257.91 99.98 258.358 100.516C258.814 101.052 259.498 101.32 260.41 101.32C260.786 101.32 261.122 101.284 261.418 101.212C261.714 101.132 261.974 101.036 262.198 100.924C262.43 100.812 262.634 100.692 262.81 100.564C262.986 100.428 263.146 100.304 263.29 100.192C263.442 100.08 263.582 99.988 263.71 99.916C263.838 99.836 263.97 99.796 264.106 99.796C264.194 99.796 264.27 99.82 264.334 99.868C264.406 99.908 264.474 99.96 264.538 100.024L265.126 100.744ZM289.297 90.808L284.197 103H282.409C282.193 103 282.069 102.852 282.037 102.556L280.633 94.612C280.609 94.476 280.589 94.344 280.573 94.216C280.565 94.08 280.553 93.944 280.537 93.808C280.497 93.944 280.449 94.084 280.393 94.228C280.345 94.364 280.293 94.5 280.237 94.636L276.877 102.556C276.757 102.852 276.581 103 276.349 103H274.633L272.509 90.808H274.261C274.429 90.808 274.565 90.852 274.669 90.94C274.781 91.028 274.849 91.14 274.873 91.276L275.893 98.764C275.917 99.068 275.933 99.36 275.941 99.64C275.957 99.92 275.969 100.2 275.977 100.48C276.081 100.2 276.189 99.92 276.301 99.64C276.413 99.36 276.525 99.068 276.637 98.764L279.805 91.228C279.853 91.092 279.937 90.984 280.057 90.904C280.177 90.816 280.309 90.772 280.453 90.772H281.437C281.597 90.772 281.725 90.816 281.821 90.904C281.925 90.984 281.985 91.092 282.001 91.228L283.285 98.764C283.325 99.06 283.361 99.352 283.393 99.64C283.433 99.928 283.465 100.212 283.489 100.492C283.569 100.212 283.653 99.932 283.741 99.652C283.829 99.364 283.925 99.068 284.029 98.764L286.933 91.276C286.981 91.14 287.065 91.028 287.185 90.94C287.305 90.852 287.441 90.808 287.593 90.808H289.297ZM294.319 101.344C294.879 101.344 295.387 101.192 295.843 100.888C296.307 100.576 296.699 100.16 297.019 99.64C297.347 99.12 297.599 98.52 297.775 97.84C297.951 97.16 298.039 96.448 298.039 95.704C298.039 94.608 297.831 93.792 297.415 93.256C296.999 92.72 296.391 92.452 295.591 92.452C295.023 92.452 294.511 92.608 294.055 92.92C293.599 93.224 293.207 93.636 292.879 94.156C292.559 94.668 292.311 95.264 292.135 95.944C291.959 96.624 291.871 97.336 291.871 98.08C291.871 99.16 292.079 99.976 292.495 100.528C292.911 101.072 293.519 101.344 294.319 101.344ZM294.103 103.168C293.439 103.168 292.827 103.056 292.267 102.832C291.707 102.6 291.223 102.268 290.815 101.836C290.415 101.404 290.099 100.876 289.867 100.252C289.643 99.62 289.531 98.9 289.531 98.092C289.531 97.06 289.691 96.092 290.011 95.188C290.339 94.276 290.783 93.484 291.343 92.812C291.911 92.132 292.575 91.6 293.335 91.216C294.103 90.824 294.927 90.628 295.807 90.628C296.471 90.628 297.083 90.744 297.643 90.976C298.203 91.2 298.683 91.528 299.083 91.96C299.491 92.392 299.807 92.924 300.031 93.556C300.263 94.18 300.379 94.892 300.379 95.692C300.379 96.716 300.215 97.684 299.887 98.596C299.567 99.5 299.123 100.292 298.555 100.972C297.995 101.652 297.331 102.188 296.563 102.58C295.803 102.972 294.983 103.168 294.103 103.168ZM305.24 94.096C305.56 93.432 305.904 92.86 306.272 92.38C306.64 91.892 307.024 91.512 307.424 91.24C307.824 90.96 308.236 90.792 308.66 90.736C309.092 90.672 309.524 90.736 309.956 90.928L309.536 93.184C308.504 92.768 307.6 92.908 306.824 93.604C306.048 94.3 305.42 95.588 304.94 97.468L304.268 103H301.976L303.452 90.784H304.628C304.884 90.784 305.08 90.848 305.216 90.976C305.352 91.104 305.42 91.304 305.42 91.576L305.24 94.096ZM310.31 103L312.458 85.288H314.762L312.614 103H310.31ZM324.278 93.508C323.982 93.116 323.63 92.84 323.222 92.68C322.814 92.52 322.406 92.44 321.998 92.44C321.598 92.44 321.218 92.524 320.858 92.692C320.506 92.86 320.182 93.088 319.886 93.376C319.598 93.664 319.338 94.004 319.106 94.396C318.874 94.788 318.678 95.208 318.518 95.656C318.358 96.104 318.234 96.568 318.146 97.048C318.066 97.528 318.026 98 318.026 98.464C318.026 99.392 318.19 100.096 318.518 100.576C318.846 101.056 319.31 101.296 319.91 101.296C320.278 101.296 320.65 101.18 321.026 100.948C321.41 100.708 321.774 100.38 322.118 99.964C322.47 99.548 322.798 99.056 323.102 98.488C323.406 97.92 323.67 97.3 323.894 96.628L324.278 93.508ZM327.59 85.288L325.406 103H324.182C323.878 103 323.674 102.924 323.57 102.772C323.466 102.612 323.414 102.42 323.414 102.196L323.618 99.856C323.314 100.36 322.982 100.816 322.622 101.224C322.27 101.632 321.898 101.98 321.506 102.268C321.122 102.556 320.718 102.78 320.294 102.94C319.878 103.092 319.45 103.168 319.01 103.168C317.986 103.168 317.178 102.792 316.586 102.04C316.002 101.288 315.71 100.172 315.71 98.692C315.71 98.028 315.778 97.368 315.914 96.712C316.058 96.048 316.254 95.42 316.502 94.828C316.758 94.228 317.062 93.672 317.414 93.16C317.774 92.648 318.174 92.204 318.614 91.828C319.054 91.452 319.526 91.16 320.03 90.952C320.542 90.736 321.078 90.628 321.638 90.628C322.23 90.628 322.766 90.74 323.246 90.964C323.734 91.188 324.146 91.504 324.482 91.912L325.298 85.288H327.59ZM333.116 85.768L332.276 92.644C332.236 93.004 332.188 93.356 332.132 93.7C332.076 94.044 332.012 94.392 331.94 94.744C331.868 95.088 331.788 95.444 331.7 95.812C331.62 96.18 331.532 96.572 331.436 96.988H329.9C329.908 96.572 329.916 96.18 329.924 95.812C329.932 95.444 329.944 95.088 329.96 94.744C329.976 94.392 329.996 94.044 330.02 93.7C330.052 93.356 330.092 93.004 330.14 92.644L330.98 85.768H333.116ZM328.7 101.596C328.7 101.38 328.74 101.176 328.82 100.984C328.9 100.792 329.008 100.624 329.144 100.48C329.288 100.336 329.456 100.224 329.648 100.144C329.84 100.056 330.048 100.012 330.272 100.012C330.488 100.012 330.692 100.056 330.884 100.144C331.076 100.224 331.244 100.336 331.388 100.48C331.532 100.624 331.644 100.792 331.724 100.984C331.812 101.176 331.856 101.38 331.856 101.596C331.856 101.82 331.812 102.028 331.724 102.22C331.644 102.412 331.532 102.58 331.388 102.724C331.244 102.868 331.076 102.98 330.884 103.06C330.692 103.14 330.488 103.18 330.272 103.18C330.048 103.18 329.84 103.14 329.648 103.06C329.456 102.98 329.288 102.868 329.144 102.724C329.008 102.58 328.9 102.412 328.82 102.22C328.74 102.028 328.7 101.82 328.7 101.596Z" fill="#1CCA00"/>
<defs>
<clipPath id="clip0_45_3056">
<rect width="368" height="72" fill="white"/>
</clipPath>
</defs>
</svg>
