<svg width="48" height="48" viewBox="0 0 48 48" fill="none" xmlns="http://www.w3.org/2000/svg">
<g id="Mic" clip-path="url(#clip0_83_3047)">
<path id="Vector" d="M22.5 33C24.4891 33 26.3968 32.2098 27.8033 30.8033C29.2098 29.3968 30 27.4891 30 25.5V7.5C30 5.51088 29.2098 3.60322 27.8033 2.1967C26.3968 0.790176 24.4891 0 22.5 0C20.5109 0 18.6032 0.790176 17.1967 2.1967C15.7902 3.60322 15 5.51088 15 7.5V25.5C15 27.4891 15.7902 29.3968 17.1967 30.8033C18.6032 32.2098 20.5109 33 22.5 33ZM33 21V25.5C33 28.2848 31.8938 30.9555 29.9246 32.9246C27.9555 34.8938 25.2848 36 22.5 36C19.7152 36 17.0445 34.8938 15.0754 32.9246C13.1062 30.9555 12 28.2848 12 25.5V21H9V25.5C9.0001 28.8206 10.224 32.0247 12.4378 34.4997C14.6516 36.9748 17.6999 38.547 21 38.916V45H15V48H30V45H24V38.916C27.3001 38.547 30.3484 36.9748 32.5622 34.4997C34.776 32.0247 35.9999 28.8206 36 25.5V21H33Z" fill="#242424"/>
</g>
<defs>
<clipPath id="clip0_83_3047">
<rect width="48" height="48" fill="white"/>
</clipPath>
</defs>
</svg>
