<svg width="48" height="48" viewBox="0 0 48 48" fill="none" xmlns="http://www.w3.org/2000/svg">
<g id="Speaker">
<path id="Vector" d="M27 8.14948C27 6.05248 24.387 5.09548 23.0325 6.69448L16.9035 13.9395C16.6218 14.2718 16.2712 14.5389 15.8759 14.722C15.4806 14.9052 15.0502 15 14.6145 15H9C7.4087 15 5.88258 15.6321 4.75736 16.7573C3.63214 17.8826 3 19.4087 3 21V27C3 28.5913 3.63214 30.1174 4.75736 31.2426C5.88258 32.3678 7.4087 33 9 33H14.6145C15.0503 33.0001 15.4808 33.0952 15.8761 33.2786C16.2714 33.462 16.622 33.7293 16.9035 34.062L23.0325 41.3055C24.3855 42.9045 27 41.9475 27 39.8505V8.14948ZM32.1495 13.764C32.3119 13.6523 32.4947 13.5737 32.6875 13.5328C32.8802 13.4918 33.0792 13.4892 33.2729 13.5251C33.4667 13.5611 33.6515 13.6348 33.8167 13.7422C33.982 13.8496 34.1245 13.9885 34.236 14.151C36.4335 17.346 37.593 20.637 37.593 24C37.593 27.363 36.4335 30.654 34.236 33.8505C34.1253 34.015 33.9832 34.1559 33.8177 34.2651C33.6522 34.3743 33.4668 34.4496 33.272 34.4867C33.0772 34.5238 32.8771 34.5219 32.683 34.4811C32.489 34.4404 32.305 34.3616 32.1416 34.2493C31.9783 34.1369 31.8388 33.9934 31.7312 33.8268C31.6237 33.6602 31.5503 33.474 31.5151 33.2789C31.48 33.0838 31.4839 32.8836 31.5267 32.69C31.5694 32.4964 31.65 32.3132 31.764 32.151C33.6915 29.346 34.5945 26.637 34.5945 24C34.5945 21.363 33.6915 18.654 31.764 15.8505C31.539 15.5226 31.4533 15.1188 31.5259 14.7279C31.5985 14.3369 31.8233 13.9907 32.151 13.7655L32.1495 13.764ZM38.535 7.91398C38.3924 7.77806 38.2244 7.67156 38.0406 7.60057C37.8568 7.52957 37.6609 7.49547 37.4639 7.5002C37.267 7.50494 37.0729 7.54842 36.8927 7.62817C36.7126 7.70791 36.5499 7.82236 36.414 7.96498C36.2781 8.10759 36.1716 8.27558 36.1006 8.45936C36.0296 8.64313 35.9955 8.83909 36.0002 9.03604C36.005 9.23299 36.0484 9.42708 36.1282 9.60723C36.2079 9.78738 36.3224 9.95006 36.465 10.086C40.0455 13.4955 41.907 18.6945 41.907 24C41.907 29.307 40.0455 34.5045 36.465 37.914C36.3224 38.0499 36.2079 38.2126 36.1282 38.3927C36.0484 38.5729 36.005 38.767 36.0002 38.9639C35.9955 39.1609 36.0296 39.3568 36.1006 39.5406C36.1716 39.7244 36.2781 39.8924 36.414 40.035C36.5499 40.1776 36.7126 40.292 36.8927 40.3718C37.0729 40.4515 37.267 40.495 37.4639 40.4997C37.6609 40.5045 37.8568 40.4704 38.0406 40.3994C38.2244 40.3284 38.3924 40.2219 38.535 40.086C42.8295 35.9955 44.9055 29.9445 44.9055 24C44.9055 18.0555 42.8295 12.0045 38.535 7.91398Z" fill="#242424" fill-opacity="0.3"/>
</g>
</svg>
