<svg width="120" height="120" viewBox="0 0 120 120" fill="none" xmlns="http://www.w3.org/2000/svg">
<path d="M74.9999 17.175V33.105C79.2449 34.9575 83.1449 37.605 86.5199 40.98C93.5999 48.06 97.4999 57.48 97.4999 67.5C97.4999 77.52 93.5999 86.9325 86.5199 94.02C79.4399 101.1 70.0199 105 59.9999 105C49.9799 105 40.5674 101.1 33.4799 94.02C26.3999 86.94 22.4999 77.52 22.4999 67.5C22.4999 57.48 26.3999 48.0675 33.4799 40.98C36.8549 37.605 40.7549 34.9575 44.9999 33.105V17.175C32.9149 20.778 22.5306 28.6106 15.7459 39.2406C8.96114 49.8705 6.22929 62.5874 8.04988 75.0659C9.87047 87.5445 16.1219 98.9507 25.6609 107.199C35.1999 115.447 47.3892 119.987 59.9999 119.987C72.6105 119.987 84.7998 115.447 94.3389 107.199C103.878 98.9507 110.129 87.5445 111.95 75.0659C113.77 62.5874 111.039 49.8705 104.254 39.2406C97.4691 28.6106 87.0848 20.778 74.9999 17.175ZM52.4999 0H67.4999V60H52.4999V0Z" fill="white"/>
</svg>
