<svg width="346" height="23" viewBox="0 0 346 23" fill="none" xmlns="http://www.w3.org/2000/svg">
<path d="M0.04 16.68C0.04 16.472 0.076 16.276 0.148 16.092C0.228 15.908 0.336 15.748 0.472 15.612C0.608 15.476 0.764 15.368 0.94 15.288C1.124 15.208 1.324 15.168 1.54 15.168C1.748 15.168 1.94 15.208 2.116 15.288C2.3 15.368 2.46 15.476 2.596 15.612C2.732 15.748 2.84 15.908 2.92 16.092C3 16.276 3.04 16.472 3.04 16.68C3.04 16.896 3 17.096 2.92 17.28C2.84 17.456 2.732 17.612 2.596 17.748C2.46 17.884 2.3 17.988 2.116 18.06C1.94 18.14 1.748 18.18 1.54 18.18C1.324 18.18 1.124 18.14 0.94 18.06C0.764 17.988 0.608 17.884 0.472 17.748C0.336 17.612 0.228 17.456 0.148 17.28C0.076 17.096 0.04 16.896 0.04 16.68ZM5.14938 16.68C5.14938 16.472 5.18538 16.276 5.25738 16.092C5.33738 15.908 5.44538 15.748 5.58138 15.612C5.71738 15.476 5.87338 15.368 6.04938 15.288C6.23338 15.208 6.43338 15.168 6.64938 15.168C6.85738 15.168 7.04938 15.208 7.22538 15.288C7.40938 15.368 7.56938 15.476 7.70538 15.612C7.84138 15.748 7.94938 15.908 8.02938 16.092C8.10938 16.276 8.14938 16.472 8.14938 16.68C8.14938 16.896 8.10938 17.096 8.02938 17.28C7.94938 17.456 7.84138 17.612 7.70538 17.748C7.56938 17.884 7.40938 17.988 7.22538 18.06C7.04938 18.14 6.85738 18.18 6.64938 18.18C6.43338 18.18 6.23338 18.14 6.04938 18.06C5.87338 17.988 5.71738 17.884 5.58138 17.748C5.44538 17.612 5.33738 17.456 5.25738 17.28C5.18538 17.096 5.14938 16.896 5.14938 16.68ZM10.2588 16.68C10.2588 16.472 10.2948 16.276 10.3668 16.092C10.4468 15.908 10.5548 15.748 10.6908 15.612C10.8268 15.476 10.9828 15.368 11.1588 15.288C11.3428 15.208 11.5428 15.168 11.7588 15.168C11.9668 15.168 12.1588 15.208 12.3348 15.288C12.5188 15.368 12.6788 15.476 12.8148 15.612C12.9508 15.748 13.0588 15.908 13.1388 16.092C13.2188 16.276 13.2588 16.472 13.2588 16.68C13.2588 16.896 13.2188 17.096 13.1388 17.28C13.0588 17.456 12.9508 17.612 12.8148 17.748C12.6788 17.884 12.5188 17.988 12.3348 18.06C12.1588 18.14 11.9668 18.18 11.7588 18.18C11.5428 18.18 11.3428 18.14 11.1588 18.06C10.9828 17.988 10.8268 17.884 10.6908 17.748C10.5548 17.612 10.4468 17.456 10.3668 17.28C10.2948 17.096 10.2588 16.896 10.2588 16.68ZM15.7761 18L17.9121 0.323999H20.0121L18.9561 8.916C19.2601 8.428 19.5881 7.984 19.9401 7.584C20.2921 7.176 20.6601 6.832 21.0441 6.552C21.4281 6.272 21.8281 6.056 22.2441 5.904C22.6601 5.744 23.0841 5.664 23.5161 5.664C24.5481 5.664 25.3521 6.04 25.9281 6.792C26.5041 7.544 26.7921 8.644 26.7921 10.092C26.7921 10.748 26.7241 11.404 26.5881 12.06C26.4521 12.716 26.2561 13.344 26.0001 13.944C25.7521 14.536 25.4481 15.092 25.0881 15.612C24.7361 16.124 24.3401 16.572 23.9001 16.956C23.4681 17.332 22.9961 17.628 22.4841 17.844C21.9721 18.06 21.4361 18.168 20.8761 18.168C20.2281 18.168 19.6401 18.032 19.1121 17.76C18.5921 17.488 18.1641 17.1 17.8281 16.596L17.6721 17.376C17.6081 17.584 17.5241 17.74 17.4201 17.844C17.3241 17.948 17.1561 18 16.9161 18H15.7761ZM22.7121 7.38C22.3281 7.38 21.9401 7.5 21.5481 7.74C21.1561 7.98 20.7761 8.312 20.4081 8.736C20.0481 9.16 19.7081 9.664 19.3881 10.248C19.0681 10.832 18.7921 11.472 18.5601 12.168L18.1761 15.324C18.4801 15.756 18.8441 16.064 19.2681 16.248C19.6921 16.424 20.1241 16.512 20.5641 16.512C20.9801 16.512 21.3721 16.424 21.7401 16.248C22.1081 16.072 22.4441 15.836 22.7481 15.54C23.0521 15.236 23.3241 14.884 23.5641 14.484C23.8041 14.076 24.0041 13.644 24.1641 13.188C24.3321 12.724 24.4601 12.248 24.5481 11.76C24.6361 11.264 24.6801 10.776 24.6801 10.296C24.6801 9.344 24.5081 8.62 24.1641 8.124C23.8201 7.628 23.3361 7.38 22.7121 7.38ZM28.2895 18L29.7535 5.832H30.8215C31.0455 5.832 31.2215 5.884 31.3495 5.988C31.4775 6.092 31.5415 6.252 31.5415 6.468C31.5415 6.5 31.5375 6.548 31.5295 6.612C31.5295 6.668 31.5255 6.728 31.5175 6.792C31.5175 6.856 31.5135 6.912 31.5055 6.96C31.5055 7.008 31.5055 7.036 31.5055 7.044L31.3375 9.252C31.8575 8.132 32.4375 7.268 33.0775 6.66C33.7255 6.052 34.4055 5.748 35.1175 5.748C35.4535 5.748 35.7895 5.82 36.1255 5.964L35.7415 8.016C35.3655 7.864 35.0015 7.788 34.6495 7.788C33.8735 7.788 33.1815 8.168 32.5735 8.928C31.9655 9.68 31.4575 10.824 31.0495 12.36L30.3775 18H28.2895ZM40.5556 5.844L39.0916 18H36.9916L38.4556 5.844H40.5556ZM41.3596 2.028C41.3596 2.236 41.3156 2.432 41.2276 2.616C41.1476 2.792 41.0356 2.952 40.8916 3.096C40.7556 3.232 40.5996 3.34 40.4236 3.42C40.2476 3.5 40.0636 3.54 39.8716 3.54C39.6876 3.54 39.5076 3.5 39.3316 3.42C39.1556 3.34 38.9996 3.232 38.8636 3.096C38.7356 2.952 38.6316 2.792 38.5516 2.616C38.4716 2.432 38.4316 2.236 38.4316 2.028C38.4316 1.82 38.4716 1.624 38.5516 1.44C38.6316 1.256 38.7396 1.096 38.8756 0.959999C39.0116 0.815999 39.1676 0.703999 39.3436 0.623999C39.5196 0.535999 39.6996 0.491999 39.8836 0.491999C40.0756 0.491999 40.2596 0.531999 40.4356 0.611999C40.6116 0.691999 40.7676 0.803999 40.9036 0.947999C41.0476 1.084 41.1596 1.248 41.2396 1.44C41.3196 1.624 41.3596 1.82 41.3596 2.028ZM50.7595 18C50.4795 18 50.2875 17.928 50.1835 17.784C50.0875 17.64 50.0395 17.464 50.0395 17.256L50.2675 14.724C49.9635 15.244 49.6315 15.716 49.2715 16.14C48.9115 16.564 48.5315 16.928 48.1315 17.232C47.7395 17.528 47.3275 17.76 46.8955 17.928C46.4715 18.088 46.0395 18.168 45.5995 18.168C44.5595 18.168 43.7515 17.792 43.1755 17.04C42.6075 16.28 42.3235 15.18 42.3235 13.74C42.3235 13.084 42.3915 12.428 42.5275 11.772C42.6635 11.116 42.8555 10.488 43.1035 9.888C43.3595 9.288 43.6635 8.732 44.0155 8.22C44.3755 7.7 44.7715 7.252 45.2035 6.876C45.6435 6.5 46.1195 6.204 46.6315 5.988C47.1435 5.772 47.6795 5.664 48.2395 5.664C48.8315 5.664 49.3715 5.78 49.8595 6.012C50.3555 6.244 50.7755 6.576 51.1195 7.008L51.9475 0.323999H54.0475L51.8635 18H50.7595ZM46.4035 16.452C46.7875 16.452 47.1715 16.336 47.5555 16.104C47.9475 15.864 48.3235 15.536 48.6835 15.12C49.0515 14.696 49.3915 14.196 49.7035 13.62C50.0235 13.036 50.2995 12.4 50.5315 11.712L50.9275 8.496C50.6235 8.072 50.2595 7.772 49.8355 7.596C49.4115 7.42 48.9835 7.332 48.5515 7.332C47.9195 7.332 47.3475 7.52 46.8355 7.896C46.3315 8.272 45.8995 8.76 45.5395 9.36C45.1875 9.952 44.9155 10.616 44.7235 11.352C44.5315 12.088 44.4355 12.812 44.4355 13.524C44.4355 14.476 44.6075 15.204 44.9515 15.708C45.2955 16.204 45.7795 16.452 46.4035 16.452ZM64.1123 9.216C64.1043 9.616 64.0523 9.976 63.9563 10.296C63.8683 10.616 63.7563 10.912 63.6203 11.184C63.4843 11.456 63.3363 11.712 63.1763 11.952C63.0163 12.192 62.8683 12.432 62.7323 12.672C62.5963 12.912 62.4803 13.16 62.3843 13.416C62.2963 13.664 62.2523 13.936 62.2523 14.232C62.2523 14.568 62.3323 14.872 62.4923 15.144C62.6603 15.416 62.8403 15.696 63.0323 15.984C63.2323 16.272 63.4123 16.588 63.5723 16.932C63.7403 17.268 63.8243 17.668 63.8243 18.132C63.8243 18.7 63.6923 19.236 63.4283 19.74C63.1643 20.252 62.7883 20.704 62.3003 21.096C61.8123 21.488 61.2163 21.796 60.5123 22.02C59.8163 22.252 59.0323 22.368 58.1603 22.368C57.4643 22.368 56.8283 22.296 56.2523 22.152C55.6843 22.008 55.1963 21.804 54.7883 21.54C54.3883 21.276 54.0803 20.956 53.8643 20.58C53.6403 20.212 53.5283 19.804 53.5283 19.356C53.5283 18.724 53.6923 18.18 54.0203 17.724C54.3483 17.268 54.7803 16.892 55.3163 16.596C55.8523 16.3 56.4603 16.084 57.1403 15.948C57.8283 15.812 58.5283 15.744 59.2403 15.744C59.5283 15.744 59.8123 15.756 60.0923 15.78C60.3803 15.804 60.6643 15.836 60.9443 15.876C60.8723 15.724 60.8123 15.568 60.7643 15.408C60.7243 15.24 60.7043 15.06 60.7043 14.868C60.7043 14.62 60.7403 14.364 60.8123 14.1C60.8923 13.836 61.0203 13.54 61.1963 13.212C60.8923 13.42 60.5523 13.58 60.1763 13.692C59.8003 13.804 59.3723 13.86 58.8923 13.86C58.4283 13.86 57.9923 13.784 57.5843 13.632C57.1843 13.48 56.8323 13.256 56.5283 12.96C56.2243 12.664 55.9843 12.296 55.8083 11.856C55.6323 11.408 55.5443 10.888 55.5443 10.296C55.5443 9.72 55.6483 9.156 55.8563 8.604C56.0723 8.044 56.3843 7.548 56.7923 7.116C57.2003 6.676 57.7043 6.324 58.3043 6.06C58.9043 5.796 59.5963 5.664 60.3803 5.664C61.2603 5.664 62.0243 5.872 62.6723 6.288H65.9723L65.8763 6.996C65.8603 7.132 65.8123 7.256 65.7323 7.368C65.6603 7.48 65.5483 7.548 65.3963 7.572L63.8843 7.836C63.9563 8.044 64.0123 8.264 64.0523 8.496C64.0923 8.72 64.1123 8.96 64.1123 9.216ZM59.4803 12.516C59.9123 12.516 60.2923 12.424 60.6203 12.24C60.9483 12.048 61.2243 11.8 61.4483 11.496C61.6803 11.184 61.8563 10.836 61.9763 10.452C62.0963 10.068 62.1563 9.68 62.1563 9.288C62.1563 8.584 61.9763 8.052 61.6163 7.692C61.2643 7.332 60.7763 7.152 60.1523 7.152C59.7203 7.152 59.3403 7.24 59.0123 7.416C58.6843 7.592 58.4083 7.828 58.1843 8.124C57.9603 8.42 57.7883 8.756 57.6683 9.132C57.5563 9.508 57.5003 9.9 57.5003 10.308C57.5003 11.028 57.6723 11.576 58.0163 11.952C58.3683 12.328 58.8563 12.516 59.4803 12.516ZM61.8803 18.3C61.8803 18.092 61.8603 17.9 61.8203 17.724C61.7803 17.54 61.7283 17.368 61.6643 17.208C61.2323 17.136 60.8243 17.084 60.4403 17.052C60.0643 17.02 59.7083 17.004 59.3723 17.004C58.7163 17.004 58.1483 17.064 57.6683 17.184C57.1883 17.296 56.7923 17.448 56.4803 17.64C56.1683 17.832 55.9363 18.052 55.7843 18.3C55.6323 18.556 55.5563 18.82 55.5563 19.092C55.5563 19.668 55.7963 20.108 56.2763 20.412C56.7643 20.716 57.4523 20.868 58.3403 20.868C58.8683 20.868 59.3483 20.796 59.7803 20.652C60.2203 20.516 60.5923 20.332 60.8963 20.1C61.2083 19.868 61.4483 19.596 61.6163 19.284C61.7923 18.972 61.8803 18.644 61.8803 18.3ZM70.1806 5.844L68.7166 18H66.6166L68.0806 5.844H70.1806ZM70.9846 2.028C70.9846 2.236 70.9406 2.432 70.8526 2.616C70.7726 2.792 70.6606 2.952 70.5166 3.096C70.3806 3.232 70.2246 3.34 70.0486 3.42C69.8726 3.5 69.6886 3.54 69.4966 3.54C69.3126 3.54 69.1326 3.5 68.9566 3.42C68.7806 3.34 68.6246 3.232 68.4886 3.096C68.3606 2.952 68.2566 2.792 68.1766 2.616C68.0966 2.432 68.0566 2.236 68.0566 2.028C68.0566 1.82 68.0966 1.624 68.1766 1.44C68.2566 1.256 68.3646 1.096 68.5006 0.959999C68.6366 0.815999 68.7926 0.703999 68.9686 0.623999C69.1446 0.535999 69.3246 0.491999 69.5086 0.491999C69.7006 0.491999 69.8846 0.531999 70.0606 0.611999C70.2366 0.691999 70.3926 0.803999 70.5286 0.947999C70.6726 1.084 70.7846 1.248 70.8646 1.44C70.9446 1.624 70.9846 1.82 70.9846 2.028ZM72.1645 18L73.6165 5.832H74.6845C75.1645 5.832 75.4045 6.072 75.4045 6.552L75.2245 8.904C75.8725 7.832 76.6005 7.024 77.4085 6.48C78.2245 5.936 79.0685 5.664 79.9405 5.664C80.8445 5.664 81.5445 5.968 82.0405 6.576C82.5445 7.184 82.7965 8.072 82.7965 9.24C82.7965 9.4 82.7925 9.564 82.7845 9.732C82.7765 9.9 82.7605 10.076 82.7365 10.26L81.8245 18H79.6885L80.6005 10.26C80.6165 10.1 80.6285 9.948 80.6365 9.804C80.6525 9.652 80.6605 9.508 80.6605 9.372C80.6605 8.716 80.5365 8.232 80.2885 7.92C80.0485 7.6 79.6685 7.44 79.1485 7.44C78.7645 7.44 78.3725 7.544 77.9725 7.752C77.5805 7.96 77.2005 8.256 76.8325 8.64C76.4645 9.016 76.1205 9.476 75.8005 10.02C75.4885 10.556 75.2205 11.156 74.9965 11.82L74.3005 18H72.1645ZM93.7373 9.216C93.7293 9.616 93.6773 9.976 93.5813 10.296C93.4933 10.616 93.3813 10.912 93.2453 11.184C93.1093 11.456 92.9613 11.712 92.8013 11.952C92.6413 12.192 92.4933 12.432 92.3573 12.672C92.2213 12.912 92.1053 13.16 92.0093 13.416C91.9213 13.664 91.8773 13.936 91.8773 14.232C91.8773 14.568 91.9573 14.872 92.1173 15.144C92.2853 15.416 92.4653 15.696 92.6573 15.984C92.8573 16.272 93.0373 16.588 93.1973 16.932C93.3653 17.268 93.4493 17.668 93.4493 18.132C93.4493 18.7 93.3173 19.236 93.0533 19.74C92.7893 20.252 92.4133 20.704 91.9253 21.096C91.4373 21.488 90.8413 21.796 90.1373 22.02C89.4413 22.252 88.6573 22.368 87.7853 22.368C87.0893 22.368 86.4533 22.296 85.8773 22.152C85.3093 22.008 84.8213 21.804 84.4133 21.54C84.0133 21.276 83.7053 20.956 83.4893 20.58C83.2653 20.212 83.1533 19.804 83.1533 19.356C83.1533 18.724 83.3173 18.18 83.6453 17.724C83.9733 17.268 84.4053 16.892 84.9413 16.596C85.4773 16.3 86.0853 16.084 86.7653 15.948C87.4533 15.812 88.1533 15.744 88.8653 15.744C89.1533 15.744 89.4373 15.756 89.7173 15.78C90.0053 15.804 90.2893 15.836 90.5693 15.876C90.4973 15.724 90.4373 15.568 90.3893 15.408C90.3493 15.24 90.3293 15.06 90.3293 14.868C90.3293 14.62 90.3653 14.364 90.4373 14.1C90.5173 13.836 90.6453 13.54 90.8213 13.212C90.5173 13.42 90.1773 13.58 89.8013 13.692C89.4253 13.804 88.9973 13.86 88.5173 13.86C88.0533 13.86 87.6173 13.784 87.2093 13.632C86.8093 13.48 86.4573 13.256 86.1533 12.96C85.8493 12.664 85.6093 12.296 85.4333 11.856C85.2573 11.408 85.1693 10.888 85.1693 10.296C85.1693 9.72 85.2733 9.156 85.4813 8.604C85.6973 8.044 86.0093 7.548 86.4173 7.116C86.8253 6.676 87.3293 6.324 87.9293 6.06C88.5293 5.796 89.2213 5.664 90.0053 5.664C90.8853 5.664 91.6493 5.872 92.2973 6.288H95.5973L95.5013 6.996C95.4853 7.132 95.4373 7.256 95.3573 7.368C95.2853 7.48 95.1733 7.548 95.0213 7.572L93.5093 7.836C93.5813 8.044 93.6373 8.264 93.6773 8.496C93.7173 8.72 93.7373 8.96 93.7373 9.216ZM89.1053 12.516C89.5373 12.516 89.9173 12.424 90.2453 12.24C90.5733 12.048 90.8493 11.8 91.0733 11.496C91.3053 11.184 91.4813 10.836 91.6013 10.452C91.7213 10.068 91.7813 9.68 91.7813 9.288C91.7813 8.584 91.6013 8.052 91.2413 7.692C90.8893 7.332 90.4013 7.152 89.7773 7.152C89.3453 7.152 88.9653 7.24 88.6373 7.416C88.3093 7.592 88.0333 7.828 87.8093 8.124C87.5853 8.42 87.4133 8.756 87.2933 9.132C87.1813 9.508 87.1253 9.9 87.1253 10.308C87.1253 11.028 87.2973 11.576 87.6413 11.952C87.9933 12.328 88.4813 12.516 89.1053 12.516ZM91.5053 18.3C91.5053 18.092 91.4853 17.9 91.4453 17.724C91.4053 17.54 91.3533 17.368 91.2893 17.208C90.8573 17.136 90.4493 17.084 90.0653 17.052C89.6893 17.02 89.3333 17.004 88.9973 17.004C88.3413 17.004 87.7733 17.064 87.2933 17.184C86.8133 17.296 86.4173 17.448 86.1053 17.64C85.7933 17.832 85.5613 18.052 85.4093 18.3C85.2573 18.556 85.1813 18.82 85.1813 19.092C85.1813 19.668 85.4213 20.108 85.9013 20.412C86.3893 20.716 87.0773 20.868 87.9653 20.868C88.4933 20.868 88.9733 20.796 89.4053 20.652C89.8453 20.516 90.2173 20.332 90.5213 20.1C90.8333 19.868 91.0733 19.596 91.2413 19.284C91.4173 18.972 91.5053 18.644 91.5053 18.3ZM100.642 5.844H102.37C102.53 5.844 102.658 5.888 102.754 5.976C102.85 6.064 102.91 6.168 102.934 6.288L104.746 14.112C104.81 14.408 104.854 14.704 104.878 15C104.91 15.296 104.934 15.588 104.95 15.876C105.038 15.588 105.13 15.3 105.226 15.012C105.322 14.716 105.442 14.416 105.586 14.112L109.354 6.288C109.418 6.16 109.506 6.056 109.618 5.976C109.73 5.888 109.854 5.844 109.99 5.844H111.658L105.562 18H103.774L100.642 5.844ZM116.228 16.5C116.812 16.5 117.344 16.34 117.824 16.02C118.304 15.7 118.712 15.276 119.048 14.748C119.384 14.212 119.644 13.596 119.828 12.9C120.012 12.204 120.104 11.476 120.104 10.716C120.104 9.596 119.884 8.752 119.444 8.184C119.004 7.616 118.368 7.332 117.536 7.332C116.944 7.332 116.408 7.492 115.928 7.812C115.456 8.124 115.052 8.548 114.716 9.084C114.38 9.612 114.12 10.224 113.936 10.92C113.752 11.616 113.66 12.344 113.66 13.104C113.66 14.224 113.876 15.072 114.308 15.648C114.748 16.216 115.388 16.5 116.228 16.5ZM116.036 18.168C115.372 18.168 114.764 18.056 114.212 17.832C113.66 17.6 113.184 17.268 112.784 16.836C112.384 16.404 112.072 15.876 111.848 15.252C111.624 14.628 111.512 13.916 111.512 13.116C111.512 12.092 111.672 11.128 111.992 10.224C112.312 9.32 112.748 8.528 113.3 7.848C113.86 7.168 114.516 6.632 115.268 6.24C116.028 5.848 116.848 5.652 117.728 5.652C118.392 5.652 119 5.768 119.552 6C120.104 6.224 120.58 6.552 120.98 6.984C121.38 7.416 121.692 7.948 121.916 8.58C122.14 9.204 122.252 9.912 122.252 10.704C122.252 11.72 122.092 12.68 121.772 13.584C121.452 14.488 121.012 15.28 120.452 15.96C119.9 16.64 119.244 17.18 118.484 17.58C117.724 17.972 116.908 18.168 116.036 18.168ZM127.626 5.844L126.162 18H124.062L125.526 5.844H127.626ZM128.43 2.028C128.43 2.236 128.386 2.432 128.298 2.616C128.218 2.792 128.106 2.952 127.962 3.096C127.826 3.232 127.67 3.34 127.494 3.42C127.318 3.5 127.134 3.54 126.942 3.54C126.758 3.54 126.578 3.5 126.402 3.42C126.226 3.34 126.07 3.232 125.934 3.096C125.806 2.952 125.702 2.792 125.622 2.616C125.542 2.432 125.502 2.236 125.502 2.028C125.502 1.82 125.542 1.624 125.622 1.44C125.702 1.256 125.81 1.096 125.946 0.959999C126.082 0.815999 126.238 0.703999 126.414 0.623999C126.59 0.535999 126.77 0.491999 126.954 0.491999C127.146 0.491999 127.33 0.531999 127.506 0.611999C127.682 0.691999 127.838 0.803999 127.974 0.947999C128.118 1.084 128.23 1.248 128.31 1.44C128.39 1.624 128.43 1.82 128.43 2.028ZM138.586 15.816C138.17 16.272 137.774 16.652 137.398 16.956C137.03 17.26 136.658 17.504 136.282 17.688C135.906 17.864 135.514 17.988 135.106 18.06C134.706 18.132 134.274 18.168 133.81 18.168C133.106 18.168 132.482 18.048 131.938 17.808C131.402 17.568 130.95 17.232 130.582 16.8C130.222 16.36 129.946 15.836 129.754 15.228C129.57 14.612 129.478 13.936 129.478 13.2C129.478 12.216 129.63 11.272 129.934 10.368C130.246 9.464 130.678 8.664 131.23 7.968C131.782 7.272 132.438 6.716 133.198 6.3C133.958 5.884 134.794 5.676 135.706 5.676C136.506 5.676 137.178 5.82 137.722 6.108C138.266 6.388 138.742 6.8 139.15 7.344L138.478 8.148C138.43 8.212 138.37 8.264 138.298 8.304C138.226 8.344 138.146 8.364 138.058 8.364C137.946 8.364 137.834 8.316 137.722 8.22C137.618 8.116 137.478 8.004 137.302 7.884C137.134 7.756 136.918 7.644 136.654 7.548C136.398 7.444 136.066 7.392 135.658 7.392C135.106 7.392 134.582 7.544 134.086 7.848C133.598 8.144 133.17 8.552 132.802 9.072C132.434 9.592 132.142 10.208 131.926 10.92C131.718 11.632 131.614 12.396 131.614 13.212C131.614 13.708 131.67 14.16 131.782 14.568C131.894 14.968 132.062 15.312 132.286 15.6C132.51 15.88 132.782 16.1 133.102 16.26C133.43 16.412 133.81 16.488 134.242 16.488C134.602 16.488 134.922 16.452 135.202 16.38C135.482 16.3 135.73 16.204 135.946 16.092C136.162 15.98 136.35 15.86 136.51 15.732C136.678 15.596 136.826 15.472 136.954 15.36C137.09 15.248 137.21 15.156 137.314 15.084C137.426 15.004 137.538 14.964 137.65 14.964C137.81 14.964 137.946 15.032 138.058 15.168L138.586 15.816ZM149.713 8.448C149.713 8.976 149.605 9.464 149.389 9.912C149.173 10.352 148.777 10.752 148.201 11.112C147.625 11.464 146.833 11.772 145.825 12.036C144.817 12.3 143.521 12.512 141.937 12.672C141.929 12.76 141.925 12.848 141.925 12.936C141.925 13.016 141.925 13.1 141.925 13.188C141.925 14.26 142.157 15.08 142.621 15.648C143.093 16.208 143.801 16.488 144.745 16.488C145.129 16.488 145.469 16.448 145.765 16.368C146.069 16.288 146.337 16.192 146.569 16.08C146.809 15.96 147.017 15.832 147.193 15.696C147.377 15.552 147.545 15.424 147.697 15.312C147.849 15.192 147.989 15.092 148.117 15.012C148.245 14.932 148.373 14.892 148.501 14.892C148.645 14.892 148.777 14.96 148.897 15.096L149.425 15.756C149.017 16.18 148.617 16.544 148.225 16.848C147.841 17.144 147.445 17.392 147.037 17.592C146.629 17.792 146.201 17.936 145.753 18.024C145.313 18.12 144.837 18.168 144.325 18.168C143.629 18.168 143.005 18.052 142.453 17.82C141.901 17.588 141.433 17.26 141.049 16.836C140.665 16.404 140.369 15.884 140.161 15.276C139.953 14.668 139.849 13.988 139.849 13.236C139.849 12.612 139.913 11.992 140.041 11.376C140.177 10.752 140.369 10.16 140.617 9.6C140.873 9.04 141.181 8.52 141.541 8.04C141.909 7.56 142.325 7.148 142.789 6.804C143.261 6.452 143.777 6.176 144.337 5.976C144.905 5.776 145.513 5.676 146.161 5.676C146.777 5.676 147.309 5.764 147.757 5.94C148.205 6.116 148.573 6.34 148.861 6.612C149.149 6.884 149.361 7.184 149.497 7.512C149.641 7.84 149.713 8.152 149.713 8.448ZM146.041 7.212C145.537 7.212 145.073 7.316 144.649 7.524C144.225 7.732 143.849 8.02 143.521 8.388C143.193 8.748 142.913 9.176 142.681 9.672C142.449 10.16 142.269 10.688 142.141 11.256C143.373 11.104 144.361 10.932 145.105 10.74C145.849 10.54 146.421 10.328 146.821 10.104C147.221 9.872 147.485 9.624 147.613 9.36C147.741 9.096 147.805 8.82 147.805 8.532C147.805 8.388 147.773 8.24 147.709 8.088C147.645 7.928 147.541 7.784 147.397 7.656C147.261 7.528 147.081 7.424 146.857 7.344C146.633 7.256 146.361 7.212 146.041 7.212ZM158.879 7.788C158.815 7.884 158.751 7.956 158.687 8.004C158.623 8.044 158.543 8.064 158.447 8.064C158.335 8.064 158.211 8.02 158.075 7.932C157.947 7.844 157.787 7.748 157.595 7.644C157.411 7.532 157.183 7.432 156.911 7.344C156.639 7.248 156.311 7.2 155.927 7.2C155.567 7.2 155.239 7.252 154.943 7.356C154.647 7.452 154.391 7.588 154.175 7.764C153.959 7.94 153.791 8.148 153.671 8.388C153.559 8.62 153.503 8.868 153.503 9.132C153.503 9.508 153.627 9.808 153.875 10.032C154.123 10.256 154.435 10.452 154.811 10.62C155.187 10.78 155.591 10.936 156.023 11.088C156.463 11.24 156.871 11.432 157.247 11.664C157.623 11.896 157.935 12.192 158.183 12.552C158.431 12.912 158.555 13.38 158.555 13.956C158.555 14.516 158.443 15.052 158.219 15.564C158.003 16.076 157.687 16.528 157.271 16.92C156.863 17.304 156.367 17.612 155.783 17.844C155.207 18.076 154.559 18.192 153.839 18.192C153.063 18.192 152.375 18.056 151.775 17.784C151.183 17.504 150.699 17.148 150.323 16.716L150.851 15.9C150.915 15.796 150.991 15.716 151.079 15.66C151.167 15.604 151.279 15.576 151.415 15.576C151.543 15.576 151.671 15.632 151.799 15.744C151.927 15.856 152.087 15.984 152.279 16.128C152.471 16.264 152.711 16.388 152.999 16.5C153.295 16.612 153.667 16.668 154.115 16.668C154.507 16.668 154.859 16.608 155.171 16.488C155.491 16.368 155.759 16.208 155.975 16.008C156.199 15.808 156.367 15.576 156.479 15.312C156.599 15.04 156.659 14.752 156.659 14.448C156.659 14.04 156.535 13.716 156.287 13.476C156.039 13.236 155.727 13.036 155.351 12.876C154.975 12.716 154.571 12.568 154.139 12.432C153.707 12.288 153.303 12.108 152.927 11.892C152.551 11.668 152.239 11.38 151.991 11.028C151.743 10.676 151.619 10.208 151.619 9.624C151.619 9.112 151.719 8.62 151.919 8.148C152.127 7.668 152.423 7.244 152.807 6.876C153.191 6.508 153.655 6.216 154.199 6C154.751 5.776 155.371 5.664 156.059 5.664C156.787 5.664 157.427 5.788 157.979 6.036C158.539 6.276 159.019 6.604 159.419 7.02L158.879 7.788ZM160.131 16.524C160.131 16.148 160.259 15.828 160.515 15.564C160.779 15.3 161.127 15.168 161.559 15.168C161.799 15.168 162.011 15.212 162.195 15.3C162.379 15.388 162.531 15.512 162.651 15.672C162.779 15.824 162.875 16.004 162.939 16.212C163.003 16.412 163.035 16.632 163.035 16.872C163.035 17.232 162.983 17.608 162.879 18C162.783 18.384 162.635 18.764 162.435 19.14C162.243 19.524 162.007 19.896 161.727 20.256C161.447 20.616 161.127 20.948 160.767 21.252L160.395 20.904C160.291 20.808 160.239 20.696 160.239 20.568C160.239 20.472 160.303 20.348 160.431 20.196C160.559 20.044 160.707 19.86 160.875 19.644C161.043 19.436 161.203 19.192 161.355 18.912C161.515 18.64 161.623 18.336 161.679 18H161.535C161.119 18 160.779 17.864 160.515 17.592C160.259 17.312 160.131 16.956 160.131 16.524ZM179.109 15.816C178.693 16.272 178.297 16.652 177.921 16.956C177.553 17.26 177.181 17.504 176.805 17.688C176.429 17.864 176.037 17.988 175.629 18.06C175.229 18.132 174.797 18.168 174.333 18.168C173.629 18.168 173.005 18.048 172.461 17.808C171.925 17.568 171.473 17.232 171.105 16.8C170.745 16.36 170.469 15.836 170.277 15.228C170.093 14.612 170.001 13.936 170.001 13.2C170.001 12.216 170.153 11.272 170.457 10.368C170.769 9.464 171.201 8.664 171.753 7.968C172.305 7.272 172.961 6.716 173.721 6.3C174.481 5.884 175.317 5.676 176.229 5.676C177.029 5.676 177.701 5.82 178.245 6.108C178.789 6.388 179.265 6.8 179.673 7.344L179.001 8.148C178.953 8.212 178.893 8.264 178.821 8.304C178.749 8.344 178.669 8.364 178.581 8.364C178.469 8.364 178.357 8.316 178.245 8.22C178.141 8.116 178.001 8.004 177.825 7.884C177.657 7.756 177.441 7.644 177.177 7.548C176.921 7.444 176.589 7.392 176.181 7.392C175.629 7.392 175.105 7.544 174.609 7.848C174.121 8.144 173.693 8.552 173.325 9.072C172.957 9.592 172.665 10.208 172.449 10.92C172.241 11.632 172.137 12.396 172.137 13.212C172.137 13.708 172.193 14.16 172.305 14.568C172.417 14.968 172.585 15.312 172.809 15.6C173.033 15.88 173.305 16.1 173.625 16.26C173.953 16.412 174.333 16.488 174.765 16.488C175.125 16.488 175.445 16.452 175.725 16.38C176.005 16.3 176.253 16.204 176.469 16.092C176.685 15.98 176.873 15.86 177.033 15.732C177.201 15.596 177.349 15.472 177.477 15.36C177.613 15.248 177.733 15.156 177.837 15.084C177.949 15.004 178.061 14.964 178.173 14.964C178.333 14.964 178.469 15.032 178.581 15.168L179.109 15.816ZM185.04 16.5C185.624 16.5 186.156 16.34 186.636 16.02C187.116 15.7 187.524 15.276 187.86 14.748C188.196 14.212 188.456 13.596 188.64 12.9C188.824 12.204 188.916 11.476 188.916 10.716C188.916 9.596 188.696 8.752 188.256 8.184C187.816 7.616 187.18 7.332 186.348 7.332C185.756 7.332 185.22 7.492 184.74 7.812C184.268 8.124 183.864 8.548 183.528 9.084C183.192 9.612 182.932 10.224 182.748 10.92C182.564 11.616 182.472 12.344 182.472 13.104C182.472 14.224 182.688 15.072 183.12 15.648C183.56 16.216 184.2 16.5 185.04 16.5ZM184.848 18.168C184.184 18.168 183.576 18.056 183.024 17.832C182.472 17.6 181.996 17.268 181.596 16.836C181.196 16.404 180.884 15.876 180.66 15.252C180.436 14.628 180.324 13.916 180.324 13.116C180.324 12.092 180.484 11.128 180.804 10.224C181.124 9.32 181.56 8.528 182.112 7.848C182.672 7.168 183.328 6.632 184.08 6.24C184.84 5.848 185.66 5.652 186.54 5.652C187.204 5.652 187.812 5.768 188.364 6C188.916 6.224 189.392 6.552 189.792 6.984C190.192 7.416 190.504 7.948 190.728 8.58C190.952 9.204 191.064 9.912 191.064 10.704C191.064 11.72 190.904 12.68 190.584 13.584C190.264 14.488 189.824 15.28 189.264 15.96C188.712 16.64 188.056 17.18 187.296 17.58C186.536 17.972 185.72 18.168 184.848 18.168ZM192.586 18L194.038 5.832H195.106C195.586 5.832 195.826 6.072 195.826 6.552L195.646 8.904C196.294 7.832 197.022 7.024 197.83 6.48C198.646 5.936 199.49 5.664 200.362 5.664C201.266 5.664 201.966 5.968 202.462 6.576C202.966 7.184 203.218 8.072 203.218 9.24C203.218 9.4 203.214 9.564 203.206 9.732C203.198 9.9 203.182 10.076 203.158 10.26L202.246 18H200.11L201.022 10.26C201.038 10.1 201.05 9.948 201.058 9.804C201.074 9.652 201.082 9.508 201.082 9.372C201.082 8.716 200.958 8.232 200.71 7.92C200.47 7.6 200.09 7.44 199.57 7.44C199.186 7.44 198.794 7.544 198.394 7.752C198.002 7.96 197.622 8.256 197.254 8.64C196.886 9.016 196.542 9.476 196.222 10.02C195.91 10.556 195.642 11.156 195.418 11.82L194.722 18H192.586ZM205.219 18L206.671 5.832H207.739C208.219 5.832 208.459 6.072 208.459 6.552L208.279 8.904C208.927 7.832 209.655 7.024 210.463 6.48C211.279 5.936 212.123 5.664 212.995 5.664C213.899 5.664 214.599 5.968 215.095 6.576C215.599 7.184 215.851 8.072 215.851 9.24C215.851 9.4 215.847 9.564 215.839 9.732C215.831 9.9 215.815 10.076 215.791 10.26L214.879 18H212.743L213.655 10.26C213.671 10.1 213.683 9.948 213.691 9.804C213.707 9.652 213.715 9.508 213.715 9.372C213.715 8.716 213.591 8.232 213.343 7.92C213.103 7.6 212.723 7.44 212.203 7.44C211.819 7.44 211.427 7.544 211.027 7.752C210.635 7.96 210.255 8.256 209.887 8.64C209.519 9.016 209.175 9.476 208.855 10.02C208.543 10.556 208.275 11.156 208.051 11.82L207.355 18H205.219ZM227.572 8.448C227.572 8.976 227.464 9.464 227.248 9.912C227.032 10.352 226.636 10.752 226.06 11.112C225.484 11.464 224.692 11.772 223.684 12.036C222.676 12.3 221.38 12.512 219.796 12.672C219.788 12.76 219.784 12.848 219.784 12.936C219.784 13.016 219.784 13.1 219.784 13.188C219.784 14.26 220.016 15.08 220.48 15.648C220.952 16.208 221.66 16.488 222.604 16.488C222.988 16.488 223.328 16.448 223.624 16.368C223.928 16.288 224.196 16.192 224.428 16.08C224.668 15.96 224.876 15.832 225.052 15.696C225.236 15.552 225.404 15.424 225.556 15.312C225.708 15.192 225.848 15.092 225.976 15.012C226.104 14.932 226.232 14.892 226.36 14.892C226.504 14.892 226.636 14.96 226.756 15.096L227.284 15.756C226.876 16.18 226.476 16.544 226.084 16.848C225.7 17.144 225.304 17.392 224.896 17.592C224.488 17.792 224.06 17.936 223.612 18.024C223.172 18.12 222.696 18.168 222.184 18.168C221.488 18.168 220.864 18.052 220.312 17.82C219.76 17.588 219.292 17.26 218.908 16.836C218.524 16.404 218.228 15.884 218.02 15.276C217.812 14.668 217.708 13.988 217.708 13.236C217.708 12.612 217.772 11.992 217.9 11.376C218.036 10.752 218.228 10.16 218.476 9.6C218.732 9.04 219.04 8.52 219.4 8.04C219.768 7.56 220.184 7.148 220.648 6.804C221.12 6.452 221.636 6.176 222.196 5.976C222.764 5.776 223.372 5.676 224.02 5.676C224.636 5.676 225.168 5.764 225.616 5.94C226.064 6.116 226.432 6.34 226.72 6.612C227.008 6.884 227.22 7.184 227.356 7.512C227.5 7.84 227.572 8.152 227.572 8.448ZM223.9 7.212C223.396 7.212 222.932 7.316 222.508 7.524C222.084 7.732 221.708 8.02 221.38 8.388C221.052 8.748 220.772 9.176 220.54 9.672C220.308 10.16 220.128 10.688 220 11.256C221.232 11.104 222.22 10.932 222.964 10.74C223.708 10.54 224.28 10.328 224.68 10.104C225.08 9.872 225.344 9.624 225.472 9.36C225.6 9.096 225.664 8.82 225.664 8.532C225.664 8.388 225.632 8.24 225.568 8.088C225.504 7.928 225.4 7.784 225.256 7.656C225.12 7.528 224.94 7.424 224.716 7.344C224.492 7.256 224.22 7.212 223.9 7.212ZM237.891 15.816C237.475 16.272 237.079 16.652 236.703 16.956C236.335 17.26 235.963 17.504 235.587 17.688C235.211 17.864 234.819 17.988 234.411 18.06C234.011 18.132 233.579 18.168 233.115 18.168C232.411 18.168 231.787 18.048 231.243 17.808C230.707 17.568 230.255 17.232 229.887 16.8C229.527 16.36 229.251 15.836 229.059 15.228C228.875 14.612 228.783 13.936 228.783 13.2C228.783 12.216 228.935 11.272 229.239 10.368C229.551 9.464 229.983 8.664 230.535 7.968C231.087 7.272 231.743 6.716 232.503 6.3C233.263 5.884 234.099 5.676 235.011 5.676C235.811 5.676 236.483 5.82 237.027 6.108C237.571 6.388 238.047 6.8 238.455 7.344L237.783 8.148C237.735 8.212 237.675 8.264 237.603 8.304C237.531 8.344 237.451 8.364 237.363 8.364C237.251 8.364 237.139 8.316 237.027 8.22C236.923 8.116 236.783 8.004 236.607 7.884C236.439 7.756 236.223 7.644 235.959 7.548C235.703 7.444 235.371 7.392 234.963 7.392C234.411 7.392 233.887 7.544 233.391 7.848C232.903 8.144 232.475 8.552 232.107 9.072C231.739 9.592 231.447 10.208 231.23 10.92C231.023 11.632 230.919 12.396 230.919 13.212C230.919 13.708 230.975 14.16 231.087 14.568C231.199 14.968 231.367 15.312 231.59 15.6C231.815 15.88 232.087 16.1 232.407 16.26C232.735 16.412 233.115 16.488 233.547 16.488C233.907 16.488 234.227 16.452 234.507 16.38C234.787 16.3 235.035 16.204 235.251 16.092C235.467 15.98 235.655 15.86 235.815 15.732C235.983 15.596 236.131 15.472 236.259 15.36C236.395 15.248 236.515 15.156 236.619 15.084C236.731 15.004 236.843 14.964 236.955 14.964C237.115 14.964 237.251 15.032 237.363 15.168L237.891 15.816ZM240.353 15.708C240.353 15.66 240.353 15.6 240.353 15.528C240.361 15.448 240.369 15.336 240.377 15.192C240.393 15.048 240.413 14.86 240.437 14.628C240.461 14.396 240.497 14.092 240.545 13.716L241.301 7.632H239.945C239.841 7.632 239.753 7.604 239.681 7.548C239.617 7.484 239.585 7.388 239.585 7.26C239.585 7.236 239.589 7.188 239.597 7.116C239.605 7.044 239.613 6.964 239.621 6.876C239.637 6.78 239.649 6.684 239.657 6.588C239.673 6.492 239.685 6.4 239.693 6.312L241.565 6.06L242.465 2.304C242.497 2.184 242.557 2.088 242.645 2.016C242.733 1.936 242.841 1.896 242.969 1.896H244.097L243.569 6.084H246.761L246.581 7.632H243.377L242.645 13.608C242.605 13.936 242.573 14.2 242.549 14.4C242.533 14.6 242.517 14.76 242.501 14.88C242.493 15 242.485 15.084 242.477 15.132C242.477 15.18 242.477 15.216 242.477 15.24C242.477 15.648 242.569 15.952 242.753 16.152C242.945 16.344 243.205 16.44 243.533 16.44C243.741 16.44 243.925 16.412 244.085 16.356C244.245 16.292 244.381 16.224 244.493 16.152C244.613 16.08 244.713 16.016 244.793 15.96C244.873 15.896 244.945 15.864 245.009 15.864C245.073 15.864 245.121 15.88 245.153 15.912C245.193 15.944 245.233 15.996 245.273 16.068L245.717 17.088C245.333 17.432 244.889 17.704 244.385 17.904C243.889 18.096 243.389 18.192 242.885 18.192C242.109 18.192 241.497 17.98 241.049 17.556C240.601 17.132 240.369 16.516 240.353 15.708ZM251.376 5.844L249.912 18H247.812L249.276 5.844H251.376ZM252.18 2.028C252.18 2.236 252.136 2.432 252.048 2.616C251.968 2.792 251.856 2.952 251.712 3.096C251.576 3.232 251.42 3.34 251.244 3.42C251.068 3.5 250.884 3.54 250.692 3.54C250.508 3.54 250.328 3.5 250.152 3.42C249.976 3.34 249.82 3.232 249.684 3.096C249.556 2.952 249.452 2.792 249.372 2.616C249.292 2.432 249.252 2.236 249.252 2.028C249.252 1.82 249.292 1.624 249.372 1.44C249.452 1.256 249.56 1.096 249.696 0.959999C249.832 0.815999 249.988 0.703999 250.164 0.623999C250.34 0.535999 250.52 0.491999 250.704 0.491999C250.896 0.491999 251.08 0.531999 251.256 0.611999C251.432 0.691999 251.588 0.803999 251.724 0.947999C251.868 1.084 251.98 1.248 252.06 1.44C252.14 1.624 252.18 1.82 252.18 2.028ZM253.36 18L254.812 5.832H255.88C256.36 5.832 256.6 6.072 256.6 6.552L256.42 8.904C257.068 7.832 257.796 7.024 258.604 6.48C259.42 5.936 260.264 5.664 261.136 5.664C262.04 5.664 262.74 5.968 263.236 6.576C263.74 7.184 263.992 8.072 263.992 9.24C263.992 9.4 263.988 9.564 263.98 9.732C263.972 9.9 263.956 10.076 263.932 10.26L263.02 18H260.884L261.796 10.26C261.812 10.1 261.824 9.948 261.832 9.804C261.848 9.652 261.856 9.508 261.856 9.372C261.856 8.716 261.732 8.232 261.484 7.92C261.244 7.6 260.864 7.44 260.344 7.44C259.96 7.44 259.568 7.544 259.168 7.752C258.776 7.96 258.396 8.256 258.028 8.64C257.66 9.016 257.316 9.476 256.996 10.02C256.684 10.556 256.416 11.156 256.192 11.82L255.496 18H253.36ZM274.933 9.216C274.925 9.616 274.873 9.976 274.777 10.296C274.689 10.616 274.577 10.912 274.441 11.184C274.305 11.456 274.157 11.712 273.997 11.952C273.837 12.192 273.689 12.432 273.553 12.672C273.417 12.912 273.301 13.16 273.205 13.416C273.117 13.664 273.073 13.936 273.073 14.232C273.073 14.568 273.153 14.872 273.313 15.144C273.481 15.416 273.661 15.696 273.853 15.984C274.053 16.272 274.233 16.588 274.393 16.932C274.561 17.268 274.645 17.668 274.645 18.132C274.645 18.7 274.513 19.236 274.249 19.74C273.985 20.252 273.609 20.704 273.121 21.096C272.633 21.488 272.037 21.796 271.333 22.02C270.637 22.252 269.853 22.368 268.981 22.368C268.285 22.368 267.649 22.296 267.073 22.152C266.505 22.008 266.017 21.804 265.609 21.54C265.209 21.276 264.901 20.956 264.685 20.58C264.461 20.212 264.349 19.804 264.349 19.356C264.349 18.724 264.513 18.18 264.841 17.724C265.169 17.268 265.601 16.892 266.137 16.596C266.673 16.3 267.281 16.084 267.961 15.948C268.649 15.812 269.349 15.744 270.061 15.744C270.349 15.744 270.633 15.756 270.913 15.78C271.201 15.804 271.485 15.836 271.765 15.876C271.693 15.724 271.633 15.568 271.585 15.408C271.545 15.24 271.525 15.06 271.525 14.868C271.525 14.62 271.561 14.364 271.633 14.1C271.713 13.836 271.841 13.54 272.017 13.212C271.713 13.42 271.373 13.58 270.997 13.692C270.621 13.804 270.193 13.86 269.713 13.86C269.249 13.86 268.813 13.784 268.405 13.632C268.005 13.48 267.653 13.256 267.349 12.96C267.045 12.664 266.805 12.296 266.629 11.856C266.453 11.408 266.365 10.888 266.365 10.296C266.365 9.72 266.469 9.156 266.677 8.604C266.893 8.044 267.205 7.548 267.613 7.116C268.021 6.676 268.525 6.324 269.125 6.06C269.725 5.796 270.417 5.664 271.201 5.664C272.081 5.664 272.845 5.872 273.493 6.288H276.793L276.697 6.996C276.681 7.132 276.633 7.256 276.553 7.368C276.481 7.48 276.369 7.548 276.217 7.572L274.705 7.836C274.777 8.044 274.833 8.264 274.873 8.496C274.913 8.72 274.933 8.96 274.933 9.216ZM270.301 12.516C270.733 12.516 271.113 12.424 271.441 12.24C271.769 12.048 272.045 11.8 272.269 11.496C272.501 11.184 272.677 10.836 272.797 10.452C272.917 10.068 272.977 9.68 272.977 9.288C272.977 8.584 272.797 8.052 272.437 7.692C272.085 7.332 271.597 7.152 270.973 7.152C270.541 7.152 270.161 7.24 269.833 7.416C269.505 7.592 269.229 7.828 269.005 8.124C268.781 8.42 268.609 8.756 268.489 9.132C268.377 9.508 268.321 9.9 268.321 10.308C268.321 11.028 268.493 11.576 268.837 11.952C269.189 12.328 269.677 12.516 270.301 12.516ZM272.701 18.3C272.701 18.092 272.681 17.9 272.641 17.724C272.601 17.54 272.549 17.368 272.485 17.208C272.053 17.136 271.645 17.084 271.261 17.052C270.885 17.02 270.529 17.004 270.193 17.004C269.537 17.004 268.969 17.064 268.489 17.184C268.009 17.296 267.613 17.448 267.301 17.64C266.989 17.832 266.757 18.052 266.605 18.3C266.453 18.556 266.377 18.82 266.377 19.092C266.377 19.668 266.617 20.108 267.097 20.412C267.585 20.716 268.273 20.868 269.161 20.868C269.689 20.868 270.169 20.796 270.601 20.652C271.041 20.516 271.413 20.332 271.717 20.1C272.029 19.868 272.269 19.596 272.437 19.284C272.613 18.972 272.701 18.644 272.701 18.3ZM281.91 5.844H283.506C283.666 5.844 283.794 5.884 283.89 5.964C283.994 6.044 284.054 6.152 284.07 6.288L285.186 14.112C285.226 14.392 285.246 14.664 285.246 14.928C285.254 15.184 285.262 15.44 285.27 15.696C285.366 15.44 285.462 15.184 285.558 14.928C285.662 14.664 285.77 14.392 285.882 14.112L289.206 6.24C289.254 6.12 289.33 6.02 289.434 5.94C289.546 5.86 289.67 5.82 289.806 5.82H290.694C290.854 5.82 290.978 5.86 291.066 5.94C291.154 6.02 291.206 6.12 291.222 6.24L292.578 14.112C292.626 14.392 292.662 14.664 292.686 14.928C292.718 15.192 292.746 15.456 292.77 15.72C292.85 15.464 292.926 15.204 292.997 14.94C293.078 14.668 293.174 14.392 293.286 14.112L296.358 6.288C296.406 6.16 296.486 6.056 296.598 5.976C296.71 5.888 296.838 5.844 296.982 5.844H298.518L293.418 18H291.798C291.614 18 291.498 17.864 291.45 17.592L289.974 9.348C289.95 9.22 289.93 9.092 289.914 8.964C289.898 8.828 289.882 8.696 289.866 8.568C289.826 8.704 289.786 8.836 289.746 8.964C289.706 9.092 289.658 9.224 289.602 9.36L286.086 17.592C285.974 17.864 285.814 18 285.606 18H284.046L281.91 5.844ZM303.353 16.5C303.937 16.5 304.469 16.34 304.949 16.02C305.429 15.7 305.837 15.276 306.173 14.748C306.509 14.212 306.769 13.596 306.953 12.9C307.137 12.204 307.229 11.476 307.229 10.716C307.229 9.596 307.009 8.752 306.569 8.184C306.129 7.616 305.493 7.332 304.661 7.332C304.069 7.332 303.533 7.492 303.053 7.812C302.581 8.124 302.177 8.548 301.841 9.084C301.505 9.612 301.245 10.224 301.061 10.92C300.877 11.616 300.785 12.344 300.785 13.104C300.785 14.224 301.001 15.072 301.433 15.648C301.873 16.216 302.513 16.5 303.353 16.5ZM303.161 18.168C302.497 18.168 301.889 18.056 301.337 17.832C300.785 17.6 300.309 17.268 299.909 16.836C299.509 16.404 299.197 15.876 298.973 15.252C298.749 14.628 298.637 13.916 298.637 13.116C298.637 12.092 298.797 11.128 299.117 10.224C299.437 9.32 299.873 8.528 300.425 7.848C300.985 7.168 301.641 6.632 302.393 6.24C303.153 5.848 303.973 5.652 304.853 5.652C305.517 5.652 306.125 5.768 306.677 6C307.229 6.224 307.705 6.552 308.105 6.984C308.505 7.416 308.817 7.948 309.041 8.58C309.265 9.204 309.377 9.912 309.377 10.704C309.377 11.72 309.217 12.68 308.897 13.584C308.577 14.488 308.137 15.28 307.577 15.96C307.025 16.64 306.369 17.18 305.609 17.58C304.849 17.972 304.033 18.168 303.161 18.168ZM310.899 18L312.363 5.832H313.431C313.655 5.832 313.831 5.884 313.959 5.988C314.087 6.092 314.151 6.252 314.151 6.468C314.151 6.5 314.147 6.548 314.139 6.612C314.139 6.668 314.135 6.728 314.127 6.792C314.127 6.856 314.123 6.912 314.115 6.96C314.115 7.008 314.115 7.036 314.115 7.044L313.947 9.252C314.467 8.132 315.047 7.268 315.687 6.66C316.335 6.052 317.015 5.748 317.727 5.748C318.063 5.748 318.399 5.82 318.735 5.964L318.351 8.016C317.975 7.864 317.611 7.788 317.259 7.788C316.483 7.788 315.791 8.168 315.183 8.928C314.575 9.68 314.067 10.824 313.659 12.36L312.987 18H310.899ZM319.517 18L321.665 0.323999H323.765L321.617 18H319.517ZM333.228 18C332.948 18 332.756 17.928 332.652 17.784C332.556 17.64 332.508 17.464 332.508 17.256L332.736 14.724C332.432 15.244 332.1 15.716 331.74 16.14C331.38 16.564 331 16.928 330.6 17.232C330.208 17.528 329.796 17.76 329.364 17.928C328.94 18.088 328.508 18.168 328.068 18.168C327.028 18.168 326.22 17.792 325.644 17.04C325.076 16.28 324.792 15.18 324.792 13.74C324.792 13.084 324.86 12.428 324.996 11.772C325.132 11.116 325.324 10.488 325.572 9.888C325.828 9.288 326.132 8.732 326.484 8.22C326.844 7.7 327.24 7.252 327.672 6.876C328.112 6.5 328.588 6.204 329.1 5.988C329.612 5.772 330.148 5.664 330.708 5.664C331.3 5.664 331.84 5.78 332.328 6.012C332.824 6.244 333.244 6.576 333.588 7.008L334.416 0.323999H336.516L334.332 18H333.228ZM328.872 16.452C329.256 16.452 329.64 16.336 330.024 16.104C330.416 15.864 330.792 15.536 331.152 15.12C331.52 14.696 331.86 14.196 332.172 13.62C332.492 13.036 332.768 12.4 333 11.712L333.396 8.496C333.092 8.072 332.728 7.772 332.304 7.596C331.88 7.42 331.452 7.332 331.02 7.332C330.388 7.332 329.816 7.52 329.304 7.896C328.8 8.272 328.368 8.76 328.008 9.36C327.656 9.952 327.384 10.616 327.192 11.352C327 12.088 326.904 12.812 326.904 13.524C326.904 14.476 327.076 15.204 327.42 15.708C327.764 16.204 328.248 16.452 328.872 16.452ZM345.465 7.788C345.401 7.884 345.337 7.956 345.273 8.004C345.209 8.044 345.129 8.064 345.033 8.064C344.921 8.064 344.797 8.02 344.661 7.932C344.533 7.844 344.373 7.748 344.181 7.644C343.997 7.532 343.769 7.432 343.497 7.344C343.225 7.248 342.897 7.2 342.513 7.2C342.153 7.2 341.825 7.252 341.529 7.356C341.233 7.452 340.977 7.588 340.761 7.764C340.545 7.94 340.377 8.148 340.257 8.388C340.145 8.62 340.089 8.868 340.089 9.132C340.089 9.508 340.213 9.808 340.461 10.032C340.709 10.256 341.021 10.452 341.397 10.62C341.773 10.78 342.177 10.936 342.609 11.088C343.049 11.24 343.457 11.432 343.833 11.664C344.209 11.896 344.521 12.192 344.769 12.552C345.017 12.912 345.141 13.38 345.141 13.956C345.141 14.516 345.029 15.052 344.805 15.564C344.589 16.076 344.273 16.528 343.857 16.92C343.449 17.304 342.953 17.612 342.369 17.844C341.793 18.076 341.145 18.192 340.425 18.192C339.649 18.192 338.961 18.056 338.361 17.784C337.769 17.504 337.285 17.148 336.909 16.716L337.437 15.9C337.501 15.796 337.577 15.716 337.665 15.66C337.753 15.604 337.865 15.576 338.001 15.576C338.129 15.576 338.257 15.632 338.385 15.744C338.513 15.856 338.673 15.984 338.865 16.128C339.057 16.264 339.297 16.388 339.585 16.5C339.881 16.612 340.253 16.668 340.701 16.668C341.093 16.668 341.445 16.608 341.757 16.488C342.077 16.368 342.345 16.208 342.561 16.008C342.785 15.808 342.953 15.576 343.065 15.312C343.185 15.04 343.245 14.752 343.245 14.448C343.245 14.04 343.121 13.716 342.873 13.476C342.625 13.236 342.313 13.036 341.937 12.876C341.561 12.716 341.157 12.568 340.725 12.432C340.293 12.288 339.889 12.108 339.513 11.892C339.137 11.668 338.825 11.38 338.577 11.028C338.329 10.676 338.205 10.208 338.205 9.624C338.205 9.112 338.305 8.62 338.505 8.148C338.713 7.668 339.009 7.244 339.393 6.876C339.777 6.508 340.241 6.216 340.785 6C341.337 5.776 341.957 5.664 342.645 5.664C343.373 5.664 344.013 5.788 344.565 6.036C345.125 6.276 345.605 6.604 346.005 7.02L345.465 7.788Z" fill="#1CCA00"/>
</svg>
