<svg width="62" height="61" viewBox="0 0 62 61" fill="none" xmlns="http://www.w3.org/2000/svg">
<path d="M55.4005 25.4178C53.0461 13.8163 42.7896 5.0839 30.4932 5.08333C18.1968 5.08275 7.93951 13.8142 5.584 25.4155L13.2091 22.8742" stroke="url(#paint0_linear_119_470)" stroke-width="3.8125" stroke-linecap="round" stroke-linejoin="round"/>
<path d="M5.58301 35.5822C7.93742 47.1837 18.1939 55.9161 30.4903 55.9167C42.7867 55.9172 53.044 47.1858 55.3995 35.5845L48.7912 38.1259" stroke="url(#paint1_linear_119_470)" stroke-width="3.8125" stroke-linecap="round" stroke-linejoin="round"/>
<g clip-path="url(#clip0_119_470)">
<path d="M32.3084 26.6172H30.3966C29.5989 26.6172 28.8139 26.997 28.3834 27.5035L27.2439 24.0849H23.61L20.584 32.9479H22.7237L23.6607 30.4156H27.2439V35.4802H20.9131C19.5204 35.4802 18.3809 34.3407 18.3809 32.9479V24.0849C18.3809 22.6921 19.5204 21.5526 20.9131 21.5526H29.7762C31.1689 21.5526 32.3084 22.6921 32.3084 24.0849V26.6172ZM26.6235 29.1495H24.0658L25.332 25.4397L26.6235 29.1495ZM31.0423 27.8833H39.9053C41.2981 27.8833 42.4376 29.0229 42.4376 30.4156V39.2786C42.4376 40.6714 41.2981 41.8109 39.9053 41.8109H31.0423C29.6495 41.8109 28.51 40.6714 28.51 39.2786V30.4156C28.51 29.0229 29.6495 27.8833 31.0423 27.8833ZM40.2218 34.2141V32.8466H36.2082V30.0991H34.7394V32.8466H30.7258V34.2141H32.3464C32.4857 35.2903 33.0555 36.5564 33.9671 37.5314C32.8655 37.9872 31.5741 38.3164 31.0423 38.3164C31.0296 38.3417 31.3209 39.5445 31.2955 40.1649C32.3591 40.1649 34.0937 39.5319 35.4485 38.7089C36.8286 39.5319 38.5885 40.1649 39.6774 40.1649C39.6521 39.5445 39.9306 38.3417 39.9306 38.3164C39.3862 38.3164 38.0441 37.9745 36.9172 37.5187C37.8035 36.5438 38.3606 35.2776 38.4999 34.2141H40.2218ZM35.3978 36.6577C34.7648 36.0753 34.3216 35.227 34.119 34.2141H36.7653C36.55 35.227 36.1195 36.0753 35.4991 36.6577L35.4485 36.6957C35.4485 36.6957 35.4105 36.6704 35.3978 36.6577Z" fill="url(#paint2_linear_119_470)"/>
</g>
<defs>
<linearGradient id="paint0_linear_119_470" x1="55.4005" y1="25.4178" x2="41.1739" y2="-9.44203" gradientUnits="userSpaceOnUse">
<stop stop-color="#128000"/>
<stop offset="0.669626" stop-color="#38C621"/>
</linearGradient>
<linearGradient id="paint1_linear_119_470" x1="55.3986" y1="55.9178" x2="41.172" y2="21.058" gradientUnits="userSpaceOnUse">
<stop stop-color="#128000"/>
<stop offset="0.669626" stop-color="#38C621"/>
</linearGradient>
<linearGradient id="paint2_linear_119_470" x1="42.4376" y1="41.8109" x2="22.4748" y2="18.1051" gradientUnits="userSpaceOnUse">
<stop stop-color="#128000"/>
<stop offset="0.669626" stop-color="#38C621"/>
</linearGradient>
<clipPath id="clip0_119_470">
<rect width="23.6372" height="23.6372" fill="white" transform="translate(19.1816 18.6813)"/>
</clipPath>
</defs>
</svg>
