<svg width="41" height="40" viewBox="0 0 41 40" fill="none" xmlns="http://www.w3.org/2000/svg">
<path d="M36.678 18.8217L23.3447 5.48834C23.1116 5.25533 22.8146 5.09665 22.4914 5.03237C22.1681 4.96809 21.8331 5.0011 21.5286 5.12721C21.2241 5.25333 20.9638 5.4669 20.7807 5.74091C20.5975 6.01493 20.4997 6.33709 20.4997 6.66668V12.575C15.9468 12.9963 11.7151 15.1014 8.63249 18.4784C5.54993 21.8553 3.83846 26.261 3.83301 30.8333V33.3333C3.83327 33.6793 3.94119 34.0166 4.1418 34.2985C4.34241 34.5804 4.62576 34.7928 4.95255 34.9064C5.27934 35.02 5.63338 35.029 5.96556 34.9323C6.29773 34.8356 6.59158 34.6379 6.80634 34.3667C8.43917 32.4249 10.4426 30.8281 12.6996 29.6694C14.9566 28.5107 17.4218 27.8134 19.9513 27.6183C20.0347 27.6083 20.243 27.5917 20.4997 27.575V33.3333C20.4997 33.6629 20.5975 33.9851 20.7807 34.2591C20.9638 34.5331 21.2241 34.7467 21.5286 34.8728C21.8331 34.9989 22.1681 35.0319 22.4914 34.9676C22.8146 34.9034 23.1116 34.7447 23.3447 34.5117L36.678 21.1783C36.9905 20.8658 37.166 20.442 37.166 20C37.166 19.5581 36.9905 19.1342 36.678 18.8217ZM23.833 29.31V25.8333C23.833 25.3913 23.6574 24.9674 23.3449 24.6548C23.0323 24.3423 22.6084 24.1667 22.1663 24.1667C21.7413 24.1667 20.0063 24.25 19.563 24.3083C15.0711 24.7222 10.7954 26.4288 7.25301 29.2217C7.65508 25.5457 9.39891 22.1473 12.1506 19.6769C14.9023 17.2066 18.4685 15.8381 22.1663 15.8333C22.6084 15.8333 23.0323 15.6578 23.3449 15.3452C23.6574 15.0326 23.833 14.6087 23.833 14.1667V10.69L33.143 20L23.833 29.31Z" fill="#1CCA00"/>
</svg>
