<svg width="20" height="20" viewBox="0 0 20 20" fill="none" xmlns="http://www.w3.org/2000/svg">
<g clip-path="url(#clip0_33_5412)">
<mask id="mask0_33_5412" style="mask-type:luminance" maskUnits="userSpaceOnUse" x="0" y="0" width="20" height="20">
<path d="M10 0C15.5228 0 20 4.47715 20 10C20 15.5228 15.5228 20 10 20C4.47715 20 0 15.5228 0 10C0 4.47715 4.47715 0 10 0Z" fill="white"/>
</mask>
<g mask="url(#mask0_33_5412)">
<path d="M0 20L0.3125 19.1406L0 18.2422V17.3438L1.25 15.2344L0 13.125V11.875L1.25 10L0 8.125V6.875L1.25 4.76562L0 2.65625V0L0.859375 0.3125L1.75781 0H2.65625L4.76562 1.25L6.875 0H8.125L10 1.25L11.875 0H13.125L15.2344 1.25L17.3438 0H20L19.6875 0.859375L20 1.75781V2.65625L18.75 4.76562L20 6.875V8.125L18.75 10L20 11.875V13.125L18.75 15.2344L20 17.3438V20L19.1406 19.6875L18.2422 20H17.3438L15.2344 18.75L13.125 20H11.875L10 18.75L8.125 20H6.875L4.76562 18.75L2.65625 20H0Z" fill="#EEEEEE"/>
<path d="M13.125 20V15.7812L17.3438 20H13.125ZM20 17.3438L15.7812 13.125H20V17.3438ZM0 13.125H4.21875L0 17.3438V13.125ZM2.65625 20L6.875 15.7812V20H2.65625ZM6.875 0V4.21875L2.65625 0H6.875ZM0 2.65625L4.21875 6.875H0V2.65625ZM20 6.875H15.7812L20 2.65625V6.875ZM17.3438 0L13.125 4.21875V0H17.3438Z" fill="#0052B4"/>
<path d="M0 20V18.2422L5.11719 13.125H6.875L0 20ZM8.125 20V11.875H0V8.125H8.125V0H11.875V8.125H20V11.875H11.875V20H8.125ZM18.2422 20L13.125 14.8828V13.125L20 20H18.2422ZM6.875 6.875L0 0H1.75781L6.875 5.11719V6.875ZM13.125 6.875L20 0V1.75781L14.8828 6.875H13.125Z" fill="#D80027"/>
</g>
</g>
<defs>
<clipPath id="clip0_33_5412">
<rect width="20" height="20" fill="white" transform="matrix(1 0 0 -1 0 20)"/>
</clipPath>
</defs>
</svg>
