<svg width="16" height="18" viewBox="0 0 16 18" fill="none" xmlns="http://www.w3.org/2000/svg">
<path d="M3.8445 17.8889H2.17784C2.08437 17.8872 1.99283 17.862 1.91171 17.8155C1.83058 17.769 1.76249 17.7029 1.71375 17.6231C1.665 17.5433 1.63717 17.4526 1.63283 17.3592C1.6285 17.2658 1.6478 17.1728 1.68895 17.0889L4.97228 10.6666H1.33339C1.23327 10.6675 1.13479 10.6413 1.04835 10.5907C0.961917 10.5402 0.890745 10.4672 0.842363 10.3796C0.793981 10.2919 0.770187 10.1928 0.773497 10.0927C0.776808 9.99268 0.8071 9.89536 0.86117 9.81109L6.7945 0.36665C6.84314 0.290735 6.90953 0.2278 6.98793 0.183276C7.06633 0.138752 7.15439 0.113979 7.2445 0.111095H14.7056C14.8165 0.105846 14.9265 0.133966 15.0213 0.191825C15.1161 0.249684 15.1914 0.334626 15.2374 0.435688C15.2835 0.53675 15.2982 0.649293 15.2796 0.758791C15.2611 0.86829 15.2101 0.969717 15.1334 1.04998L10.1001 6.77776H13.0889C13.1948 6.77999 13.2977 6.8124 13.3858 6.87118C13.4738 6.92996 13.5432 7.01266 13.5858 7.10955C13.6284 7.20644 13.6424 7.31348 13.6263 7.41808C13.6101 7.52268 13.5644 7.62049 13.4945 7.69998L4.25561 17.7C4.20417 17.7585 4.14099 17.8056 4.07016 17.8382C3.99933 17.8707 3.92245 17.888 3.8445 17.8889ZM3.10006 16.7778H3.60561L11.8112 7.88887H8.88339C8.77246 7.89412 8.6625 7.866 8.5677 7.80814C8.47291 7.75028 8.39763 7.66534 8.35158 7.56428C8.30554 7.46322 8.29084 7.35067 8.30938 7.24118C8.32792 7.13168 8.37886 7.03025 8.45561 6.94998L13.4889 1.22221H7.55006L2.31673 9.55554H5.88895C5.98242 9.55721 6.07395 9.58245 6.15508 9.62891C6.2362 9.67536 6.30429 9.74154 6.35304 9.82131C6.40179 9.90108 6.42962 9.99186 6.43395 10.0852C6.43828 10.1786 6.41898 10.2716 6.37784 10.3555L3.10006 16.7778Z" fill="#1CCA00"/>
</svg>
